<?xml version="1.0" encoding="utf-8"?>
<!-- Generator: Adobe Illustrator 23.0.3, SVG Export Plug-In . SVG Version: 6.00 Build 0)  -->
<svg version="1.1" id="Layer_1" xmlns="http://www.w3.org/2000/svg" xmlns:xlink="http://www.w3.org/1999/xlink" x="0px" y="0px"
	 viewBox="0 0 100 100" style="enable-background:new 0 0 100 100;" xml:space="preserve">
<style type="text/css">
	.st0{fill:#293562;}
	.st1{fill-rule:evenodd;clip-rule:evenodd;fill:#293562;}
</style>
<g transform="translate(0,-952.36218)">
	<path class="st0" d="M58.74,957.92c11.02,0,17.33,6.96,23.82,14.25c-0.26,1-0.99,1.92-1.57,2.68c-1.01,1.31-2.27,2.74-3.14,4.05
		c-0.1,0.16-0.15,0.35-0.13,0.54c0.46,5.31,0.51,10.53,0.28,15.72c-2.46,0.79-5.61,3.04-8.51,6.03c-1.8,1.86-3.49,4-4.74,6.26
		l-1.06-14.95c-0.03-0.48-0.56-0.87-1.03-0.75l-1.98,0.49c0.46-2.23,1.06-4.47,1.42-6.55c0.42-2.49,0.42-4.91-1.06-6.83
		c-0.06-0.08-0.13-0.15-0.21-0.21c-3.41-2.13-7.14-3.37-9.9-5.15c-2.76-1.78-4.56-3.93-4.56-8.27c0-2.52,1.39-4.23,3.69-5.46
		C52.35,958.54,55.54,957.92,58.74,957.92L58.74,957.92z M53.09,961.22c-2.61,0-5.08,2.49-5.08,4.97c0,2.46,2.48,4.92,4.72,4.92
		h10.13c2.47,0,4.95-2.46,4.95-5c0-2.41-2.47-4.9-4.87-4.9H53.09z M69.46,985.14c-0.82,0-1.65,0.83-1.65,2.11
		c0,1.19,0.82,2.01,1.83,2.01c3.12,0,3.94,0,3.94-1.91C73.58,985.96,71.11,985.14,69.46,985.14z M41.41,988.36v23.09h0.82v-23.09
		H41.41z M43.89,988.36v23.09h1.65v-23.09H43.89z M46.36,988.36v23.09h0.82v-23.09H46.36z M19.14,988.44v23.09h1.65v-23.09H19.14z
		 M21.61,988.44v23.09h0.82v-23.09H21.61z M24.91,988.44v23.09h1.65v-23.09H24.91z M27.39,988.44v23.09h0.82v-23.09H27.39z
		 M29.04,988.44v23.09h0.82v-23.09H29.04z M30.69,988.44v23.09h1.65v-23.09H30.69z M33.99,988.44v23.09h0.82v-23.09H33.99z
		 M35.64,988.44v23.09h1.65v-23.09H35.64z M39.76,988.44v23.09h0.82v-23.09H39.76z M77.91,996.94c-0.51,9.14-1.86,18.19-3.45,27.4
		c-0.68,0.96-2.39,2.17-4.23,3.04c-1.88,0.89-3.94,1.47-4.9,1.47c-2.25-0.52-4.08-2.66-4.12-4.95c0-0.93,0.58-2.21,1.42-3.58
		c0.84-1.37,1.9-2.82,2.63-4.28c0.07-0.14,0.09-0.29,0.08-0.44l-0.34-4.77c1.09-2.96,3.25-5.99,5.67-8.48
		C72.93,1000.39,75.25,998.12,77.91,996.94L77.91,996.94z"/>
</g>
<path class="st1" d="M8.7,85.41h81.73c1.7,0,1.7,2.2,0,2.2H8.7C6.83,87.61,6.83,85.41,8.7,85.41z"/>
</svg>
