<?xml version="1.0" encoding="utf-8"?>
<!-- Generator: Adobe Illustrator 23.0.3, SVG Export Plug-In . SVG Version: 6.00 Build 0)  -->
<svg version="1.1" id="Layer_1" xmlns="http://www.w3.org/2000/svg" xmlns:xlink="http://www.w3.org/1999/xlink" x="0px" y="0px"
	 viewBox="0 0 100 100" style="enable-background:new 0 0 100 100;" xml:space="preserve">
<style type="text/css">
	.st0{fill:#293562;}
	.st1{fill-rule:evenodd;clip-rule:evenodd;fill:#293562;}
</style>
<g>
	<rect x="21.73" y="35.79" class="st0" width="11.77" height="4.45"/>
	<rect x="35" y="35.79" class="st0" width="11.76" height="4.45"/>
	<path class="st0" d="M77.48,11.62h-58.5c-1.51,0-2.75,1.34-2.75,2.97v29.89c0,1.64,1.24,2.97,2.75,2.97h58.5
		c1.52,0,2.75-1.33,2.75-2.97V14.59C80.23,12.96,79,11.62,77.48,11.62z M48.26,41c0,0.41-0.34,0.75-0.75,0.75H20.98
		c-0.41,0-0.75-0.34-0.75-0.75v-5.95c0-0.41,0.34-0.75,0.75-0.75h26.53c0.41,0,0.75,0.34,0.75,0.75V41z M47.77,29.65H20.98
		c-0.41,0-0.75-0.34-0.75-0.75s0.34-0.75,0.75-0.75h26.78c0.41,0,0.75,0.34,0.75,0.75S48.18,29.65,47.77,29.65z M20.23,23.46
		c0-0.41,0.34-0.75,0.75-0.75h37.79c0.41,0,0.75,0.34,0.75,0.75s-0.34,0.75-0.75,0.75H20.98C20.57,24.21,20.23,23.87,20.23,23.46z
		 M58.26,31.06c2.2-2.63,6.98-0.84,5.92,3.47c-0.07,0.3-0.33,1.31,0.1,1.42c0.02,0,0.06,0.01,0.13-0.03
		c0.81-0.5,0.29-2.13,1.29-3.27c1.27-1.45,3.67-0.67,3.86,1.24c0.1,1.02-0.53,1.89-0.49,2.48c0.07,0.88,1.46,1.38,2.74,0.18
		c0.54-0.51,0.96-1.21,1.36-1.88c0.21-0.36,0.67-0.47,1.03-0.26c0.36,0.21,0.47,0.67,0.26,1.03c-0.43,0.73-0.92,1.55-1.62,2.21
		c-2.24,2.1-5.11,0.95-5.27-1.16c-0.1-1.28,1.14-2.69,0-3.05c-1.56-0.51-0.56,2.63-2.38,3.76c-0.4,0.25-0.84,0.32-1.28,0.21
		c-0.98-0.24-1.43-1.29-1.38-2.2c0.04-0.69,0.28-1.22,0.33-1.76c0.07-0.81-0.45-1.66-1.21-1.97c-1.75-0.72-3.41,1.27-2.4,2.86
		c0.22,0.35,0.12,0.81-0.23,1.04s-0.81,0.12-1.04-0.23C57.2,33.9,57.32,32.18,58.26,31.06z M75.48,41.75H58.78
		c-0.41,0-0.75-0.34-0.75-0.75s0.34-0.75,0.75-0.75h16.71c0.41,0,0.75,0.34,0.75,0.75S75.9,41.75,75.48,41.75z M75.48,18.83h-54.5
		c-0.41,0-0.75-0.34-0.75-0.75c0-0.41,0.34-0.75,0.75-0.75h54.5c0.41,0,0.75,0.34,0.75,0.75C76.23,18.49,75.9,18.83,75.48,18.83z"/>
</g>
<path class="st1" d="M9.8,83.65h81.73c1.7,0,1.7,2.2,0,2.2H9.8C7.93,85.85,7.93,83.65,9.8,83.65z"/>
<g>
	<g>
		<g>
			<path class="st0" d="M39.74,50.8c5.32,5.32,10.64,10.64,15.95,15.95c1.03,1.03,2.62-0.57,1.59-1.59
				c-5.32-5.32-10.64-10.64-15.95-15.95C40.31,48.18,38.72,49.77,39.74,50.8L39.74,50.8z"/>
		</g>
	</g>
	<g>
		<g>
			<path class="st0" d="M55.73,49.24c-5.34,5.34-10.68,10.68-16.02,16.02c-1.03,1.03,0.57,2.62,1.59,1.59
				c5.34-5.34,10.68-10.68,16.02-16.02C58.34,49.8,56.75,48.21,55.73,49.24L55.73,49.24z"/>
		</g>
	</g>
</g>
</svg>
