<?xml version="1.0" encoding="utf-8"?>
<!-- Generator: Adobe Illustrator 23.0.3, SVG Export Plug-In . SVG Version: 6.00 Build 0)  -->
<svg version="1.1" id="Layer_1" xmlns="http://www.w3.org/2000/svg" xmlns:xlink="http://www.w3.org/1999/xlink" x="0px" y="0px"
	 viewBox="0 0 100 100" style="enable-background:new 0 0 100 100;" xml:space="preserve">
<style type="text/css">
	.st0{fill:#293562;}
	.st1{fill-rule:evenodd;clip-rule:evenodd;fill:#293562;}
</style>
<g>
	<path class="st0" d="M59.22,76.07l3.85-12.82c0.12-0.39,0.04-0.81-0.2-1.13c-0.24-0.33-0.62-0.52-1.03-0.52H42.97l-0.4-2.87
		c-0.14-0.57-0.66-0.97-1.24-0.97h-6.41v2.56h5.41l3.6,15.69c0.14,0.57,0.66,0.97,1.24,0.97H58C58.56,76.98,59.06,76.61,59.22,76.07
		z"/>
	<circle class="st0" cx="55.43" cy="80.83" r="2.56"/>
	<circle class="st0" cx="47.74" cy="80.83" r="2.56"/>
	<path class="st0" d="M49.02,59.03h38.46V6.47H49.02V59.03z M68.25,18.01c-2.12,0-3.85-1.73-3.85-3.85c0-1.67,1.08-3.08,2.56-3.61
		V9.03h2.56v1.52c1.49,0.53,2.56,1.94,2.56,3.61h-2.56c0-0.71-0.58-1.28-1.28-1.28c-0.71,0-1.28,0.57-1.28,1.28s0.58,1.28,1.28,1.28
		c2.12,0,3.85,1.73,3.85,3.85c0,1.67-1.08,3.08-2.56,3.61v1.52h-2.56V22.9c-1.49-0.53-2.56-1.94-2.56-3.61h2.56
		c0,0.71,0.58,1.28,1.28,1.28c0.71,0,1.28-0.57,1.28-1.28C69.53,18.58,68.96,18.01,68.25,18.01z M63.12,29.55h17.95v2.56H63.12
		V29.55z M63.12,37.24h17.95v2.56H63.12V37.24z M63.12,44.93h17.95v2.56H63.12V44.93z M63.12,51.34h17.95v2.56H63.12V51.34z
		 M55.43,29.55H58v2.56h-2.56V29.55z M55.43,37.24H58v2.56h-2.56V37.24z M55.43,44.93H58v2.56h-2.56V44.93z M55.43,51.34H58v2.56
		h-2.56V51.34z"/>
	<path class="st0" d="M32.35,67.56c-0.09-3.57-2.35-5.85-5.16-5.87l-0.63,0c2.69-1.55,4.51-4.45,4.51-7.77
		c0-4.95-4.03-8.97-8.97-8.97s-8.97,4.03-8.97,8.97c0,3.27,1.76,6.12,4.38,7.69h-0.51c-2.84-0.02-5.15,2.27-5.15,5.11v16.68h20.51
		V67.56z M15.69,53.91c0-0.02,0.01-0.03,0.01-0.05c0.22,0.02,0.44,0.05,0.67,0.05c2.97-0.01,5.06-1.91,5.72-2.56
		c0.66,0.66,2.75,2.55,5.72,2.56c0.25,0,0.47-0.03,0.7-0.05c0,0.02,0.01,0.03,0.01,0.05c0,3.53-2.88,6.41-6.41,6.41
		S15.69,57.44,15.69,53.91z M22.1,76.98l-2.56-6.41l2.2-7.71c0.12,0.01,0.24,0.02,0.36,0.02c0.12,0,0.23-0.01,0.35-0.02l2.22,7.71
		L22.1,76.98z"/>
</g>
<path class="st1" d="M8.69,88.69h81.73c1.7,0,1.7,2.2,0,2.2H8.69C6.82,90.89,6.82,88.69,8.69,88.69z"/>
</svg>
