<?xml version="1.0" encoding="utf-8"?>
<!-- Generator: Adobe Illustrator 23.0.3, SVG Export Plug-In . SVG Version: 6.00 Build 0)  -->
<svg version="1.1" id="Layer_1" xmlns="http://www.w3.org/2000/svg" xmlns:xlink="http://www.w3.org/1999/xlink" x="0px" y="0px"
	 viewBox="0 0 100 100" style="enable-background:new 0 0 100 100;" xml:space="preserve">
<style type="text/css">
	.st0{fill-rule:evenodd;clip-rule:evenodd;fill:#293562;}
	.st1{fill:#293562;}
</style>
<path class="st0" d="M9.2,81.88h81.73c1.7,0,1.7,2.2,0,2.2H9.2C7.33,84.08,7.33,81.88,9.2,81.88z"/>
<g>
	<g>
		<g>
			<g>
				<path class="st1" d="M49.96,28.23c-3.54,0-6.47,2.57-6.56,5.85h2.22c0.09-2.04,2.04-3.63,4.34-3.63c2.3,0,4.25,1.59,4.34,3.63
					h2.22C56.42,30.89,53.5,28.23,49.96,28.23z M46.32,26.54c0.97,0,1.77-0.8,1.77-1.77S47.3,23,46.32,23s-1.77,0.8-1.77,1.77
					C44.55,25.75,45.35,26.54,46.32,26.54z M49.96,14.58c7.09,0,12.85,5.76,12.85,12.85s-5.76,12.85-12.85,12.85
					s-12.85-5.76-12.85-12.85S42.87,14.58,49.96,14.58z M55.36,24.77c0-0.97-0.8-1.77-1.77-1.77s-1.77,0.8-1.77,1.77
					s0.8,1.77,1.77,1.77S55.36,25.75,55.36,24.77z"/>
				<path class="st1" d="M72.37,10.24H27.63v24.99l22.33,14.35l22.42-14.97V10.24z M75.03,7.58v25.25l7.89-5.23v48.38H17.08V28.4
					l7.89,5.05V7.58H75.03z"/>
			</g>
		</g>
	</g>
</g>
</svg>
