<?xml version="1.0" encoding="utf-8"?>
<!-- Generator: Adobe Illustrator 23.0.3, SVG Export Plug-In . SVG Version: 6.00 Build 0)  -->
<svg version="1.1" id="Layer_1" xmlns="http://www.w3.org/2000/svg" xmlns:xlink="http://www.w3.org/1999/xlink" x="0px" y="0px"
	 viewBox="0 0 100 100" style="enable-background:new 0 0 100 100;" xml:space="preserve">
<style type="text/css">
	.st0{fill:none;}
	.st1{fill:#293562;}
	.st2{fill-rule:evenodd;clip-rule:evenodd;fill:#293562;}
</style>
<path class="st0" d="M26.94,48.99L26.94,48.99c0.13-0.42,0.25-1.05,0.25-1.53c0-0.29-0.03-0.57-0.08-0.84
	c-0.23-0.37-0.39-0.79-0.45-1.25c-0.29,0.19-0.56,0.37-0.75,0.49c-0.21,0.13-0.51,0.29-0.84,0.44c0.43,0.62,1.3,1.91,1.78,2.9
	C26.87,49.12,26.9,49.05,26.94,48.99z"/>
<path class="st0" d="M24.56,48.43c0.42-0.96,1.35-2.33,1.79-2.96c-0.31-0.14-0.61-0.3-0.8-0.42c-0.19-0.12-0.46-0.29-0.75-0.49
	c-0.06,0.55-0.25,1.06-0.55,1.49c-0.04,0.23-0.06,0.47-0.06,0.71c0,0.48,0.07,0.93,0.2,1.35C24.44,48.21,24.5,48.32,24.56,48.43z"/>
<path class="st1" d="M36.11,46.78c0.16-0.21,0.19-0.47,0.12-0.71c0-0.01,0-0.01,0-0.02c-0.63-2.48-4.59-4.1-5.09-4.13
	c-0.04-0.02-0.09-0.04-0.13-0.05l0.01,0l-0.29-0.47h-0.62h-0.73h-0.62l-0.29,0.47l0,0c-1,0.28-4.54,1.91-5.15,4.3
	c0,0.01,0,0.01,0,0.02c-0.07,0.25-0.04,0.52,0.13,0.75c0,0,1.92,2.55,3.02,3.32c-0.05,0.16-0.09,0.33-0.14,0.51
	c0-0.01-0.01-0.02-0.01-0.03c-0.01,0.04-0.01,0.09-0.02,0.13c-0.26,1.02-0.51,2.37-0.54,3.83c-0.02,0.13-0.02,0.13-0.02,0.13
	l-1.31,9.68c0.8,0.23,1.56,0.4,2.29,0.53c0.2,1.91,0.54,3.69,1.16,3.69c0.59,0,0.94-1.63,1.14-3.45c0.52,0.02,1,0.02,1.46,0
	c0.2,1.78,0.54,3.35,1.13,3.35c0.61,0,0.96-1.74,1.16-3.63c1.52-0.3,2.38-0.73,2.38-0.73l-1.33-9.43c0,0,0,0-0.08-0.57
	c-0.06-1.67-0.37-3.19-0.64-4.15C34.05,49.68,36.11,46.78,36.11,46.78z M26.94,48.99c-0.04,0.07-0.07,0.13-0.1,0.2
	c-0.48-0.99-1.35-2.28-1.78-2.9c0.33-0.15,0.64-0.31,0.84-0.44c0.19-0.12,0.46-0.29,0.75-0.49c0.06,0.45,0.22,0.87,0.45,1.25
	c0.05,0.27,0.08,0.55,0.08,0.84C27.19,47.94,27.07,48.57,26.94,48.99L26.94,48.99z M29.77,49.29l-0.44-0.55l0.09-5.92
	c-0.03-0.06-0.05-0.13-0.05-0.21c0-0.26,0.18-0.47,0.39-0.47s0.39,0.21,0.39,0.47c0,0.08-0.02,0.15-0.05,0.21l0.09,5.92L29.77,49.29
	z M32.78,49.13c-0.05-0.11-0.11-0.22-0.18-0.32c-0.13-0.42-0.2-0.87-0.2-1.35c0-0.24,0.03-0.48,0.06-0.71
	c0.3-0.43,0.49-0.94,0.55-1.49c0.29,0.19,0.56,0.37,0.75,0.49c0.2,0.12,0.49,0.28,0.8,0.42C34.13,46.79,33.2,48.17,32.78,49.13z"/>
<path class="st0" d="M10.56,47.82L10.56,47.82l0.01-0.06c0.02-0.13,0.05-0.27,0.09-0.4l0.86-3.77c-0.59,0.33-1.43,0.78-1.87,0.99
	c-0.2,0.1-0.49,0.22-0.81,0.33c0.27,0.51,1.18,2.21,1.67,3.55c0-0.01,0-0.02,0-0.02C10.5,48.22,10.53,48.02,10.56,47.82z"/>
<path class="st0" d="M12.85,40.86L12.85,40.86L12.85,40.86z"/>
<path class="st0" d="M19.2,44.58c-0.44-0.21-1.28-0.66-1.87-0.99l0.84,3.69c0.05,0.16,0.09,0.33,0.11,0.5l0.01,0.06h0
	c0.03,0.19,0.05,0.38,0.05,0.58c0,0.01,0,0.02,0,0.02c0.5-1.34,1.4-3.04,1.67-3.55C19.7,44.8,19.41,44.68,19.2,44.58z"/>
<circle class="st1" cx="14.42" cy="37.24" r="2.72"/>
<path class="st1" d="M21.86,44.94c0.01-0.08,0.01-0.17-0.04-0.29c-0.96-2.64-5.6-3.92-5.82-3.79c0,0-0.01-0.01-0.01-0.01l-0.29-0.6
	l-1.18,0.1v0.01c-0.03,0-0.07-0.01-0.1-0.01c-0.04,0-0.07,0-0.11,0.01v-0.01l-1.18-0.1l-0.29,0.61l0,0
	c-0.24-0.13-4.87,1.16-5.82,3.79c-0.04,0.12-0.05,0.21-0.04,0.29c-0.08,0.25-0.06,0.53,0.08,0.78c0,0,2.84,4.9,3.63,4.45
	c0.06-0.04,0.1-0.1,0.12-0.19c0.03,0.08,0.07,0.15,0.11,0.23c0.02,0.97-0.01,1.39-0.01,1.39l0,0c-0.26,1.63-0.49,5.64,0.21,15.41
	c0,0,0.07,0.04,0.18,0.1v0.36c0,0.7,0.48,1.27,1.08,1.27h0.01c0.6,0,1.08-0.57,1.08-1.27v-0.35c0.06-0.03,0.12-0.07,0.18-0.11
	c0.14-3.55,0.01-7.46,0.16-10.36c0.01-0.08,0.02-0.16,0.02-0.23c0.02-0.28,0.05-0.66,0.07-1.08c0.09-0.94,0.23-1.71,0.45-2.24
	c0.9,2.23,0.5,8.49,0.71,13.92c0.07,0.05,0.14,0.09,0.21,0.12v0.3c0,0.7,0.48,1.27,1.08,1.27h0.01c0.6,0,1.08-0.57,1.08-1.27v-0.34
	c0.1-0.05,0.16-0.08,0.16-0.08c0.71-9.86,0.47-13.86,0.2-15.46l0,0c0,0-0.02-0.34-0.01-1.13c0.08-0.14,0.16-0.29,0.23-0.44
	c0.02,0.09,0.06,0.16,0.12,0.19c0.8,0.45,3.63-4.45,3.63-4.45C21.92,45.47,21.94,45.19,21.86,44.94z M10.66,47.36
	c-0.04,0.13-0.07,0.26-0.09,0.4l-0.01,0.06h0c-0.03,0.2-0.05,0.41-0.05,0.62c0,0.01,0,0.02,0,0.02c-0.5-1.34-1.4-3.04-1.67-3.55
	c0.32-0.11,0.61-0.23,0.81-0.33c0.44-0.21,1.28-0.66,1.87-0.99L10.66,47.36z M12.85,40.86L12.85,40.86L12.85,40.86L12.85,40.86z
	 M14.42,47.69l-0.51-0.55l0.11-5.86c-0.03-0.06-0.06-0.13-0.06-0.21c0-0.26,0.21-0.46,0.46-0.46s0.46,0.21,0.46,0.46
	c0,0.08-0.02,0.15-0.06,0.21l0.11,5.86L14.42,47.69z M18.34,48.46c0-0.01,0-0.02,0-0.02c0-0.2-0.02-0.39-0.05-0.58h0l-0.01-0.06
	c-0.03-0.17-0.06-0.34-0.11-0.5l-0.84-3.69c0.59,0.33,1.43,0.78,1.87,0.99c0.2,0.1,0.49,0.22,0.81,0.33
	C19.74,45.42,18.84,47.12,18.34,48.46z"/>
<circle class="st1" cx="29.83" cy="37.82" r="3.04"/>
<polygon class="st1" points="39.47,52.13 39.47,53.57 39.47,55.95 39.47,68.73 42.97,68.73 42.97,55.95 89.57,55.95 89.57,68.73 
	93.06,68.73 93.06,55.95 93.06,53.57 93.06,52.13 "/>
<circle class="st1" cx="47.57" cy="41.3" r="2.91"/>
<path class="st1" d="M53.26,50.98c-0.54-3.11-1.73-5.64-3.27-6.95c-0.65,0.57-1.49,0.93-2.42,0.93s-1.77-0.36-2.42-0.93
	c-1.54,1.31-2.73,3.84-3.27,6.95H53.26z"/>
<circle class="st1" cx="59.93" cy="41.3" r="2.91"/>
<path class="st1" d="M65.61,50.98c-0.54-3.11-1.73-5.64-3.27-6.95c-0.65,0.57-1.49,0.93-2.42,0.93c-0.93,0-1.77-0.36-2.42-0.93
	c-1.54,1.31-2.73,3.84-3.27,6.95H65.61z"/>
<circle class="st1" cx="72.29" cy="41.3" r="2.91"/>
<path class="st1" d="M77.97,50.98c-0.54-3.11-1.73-5.64-3.27-6.95c-0.65,0.57-1.49,0.93-2.42,0.93c-0.93,0-1.77-0.36-2.42-0.93
	c-1.54,1.31-2.73,3.84-3.27,6.95H77.97z"/>
<circle class="st1" cx="84.65" cy="41.3" r="2.91"/>
<path class="st1" d="M90.33,50.98c-0.54-3.11-1.73-5.64-3.27-6.95c-0.65,0.57-1.49,0.93-2.42,0.93c-0.93,0-1.77-0.36-2.42-0.93
	c-1.54,1.31-2.73,3.84-3.27,6.95H90.33z"/>
<path class="st2" d="M10.23,76.05h81.73c1.7,0,1.7,2.2,0,2.2H10.23C8.36,78.25,8.36,76.05,10.23,76.05z"/>
</svg>
