<?xml version="1.0" encoding="utf-8"?>
<!-- Generator: Adobe Illustrator 23.0.3, SVG Export Plug-In . SVG Version: 6.00 Build 0)  -->
<svg version="1.1" id="Layer_1" xmlns="http://www.w3.org/2000/svg" xmlns:xlink="http://www.w3.org/1999/xlink" x="0px" y="0px"
	 viewBox="0 0 100 100" style="enable-background:new 0 0 100 100;" xml:space="preserve">
<style type="text/css">
	.st0{fill-rule:evenodd;clip-rule:evenodd;fill:#293462;}
	.st1{fill:#293462;}
</style>
<path class="st0" d="M39.68,55.09L40.5,85.9H3.22v-7.64c0.36-1.64,0.9-3.21,1.62-4.69c0.6-1.29,1.43-2.53,2.47-3.76
	c1.04-1.23,2.38-2.14,4.03-2.75c0.84-0.28,1.95-0.69,3.31-1.23c1.37-0.54,2.89-1.17,4.57-1.86c1.68-0.7,3.46-1.46,5.33-2.26
	c1.86-0.81,3.71-1.6,5.56-2.4c1.85-0.81,3.59-1.56,5.23-2.28C36.99,56.29,38.44,55.65,39.68,55.09z M61.34,55.51v-7.04
	c0-0.32,0.1-0.83,0.3-1.54c0.2-0.69,0.42-1.42,0.66-2.19c0.28-0.88,0.58-1.82,0.91-2.82c1.15-2.17,2.07-4.61,2.73-7.32
	c0.66-2.71,1-5.56,1-8.57c0-4.09-0.43-7.56-1.3-10.38c-0.87-2.83-2.05-5.12-3.56-6.86c-1.5-1.74-3.25-3-5.23-3.79
	c-1.99-0.79-4.1-1.17-6.35-1.17c-2.28,0-4.42,0.4-6.4,1.2c-1.99,0.8-3.72,2.09-5.2,3.85c-1.49,1.76-2.66,4.05-3.52,6.85
	c-0.86,2.81-1.3,6.24-1.3,10.29c0,3.08,0.35,6.01,1.03,8.76c0.69,2.75,1.61,5.2,2.77,7.37c0.32,0.92,0.6,1.79,0.84,2.58
	c0.21,0.69,0.39,1.36,0.58,2.02c0.17,0.66,0.31,1.16,0.39,1.47v6.86l10.83,4.72L61.34,55.51z M96.78,78.26
	c-0.32-1.64-0.84-3.21-1.56-4.69c-0.61-1.29-1.42-2.53-2.47-3.76c-1.04-1.23-2.42-2.14-4.1-2.75c-0.8-0.28-1.84-0.67-3.13-1.2
	c-1.28-0.53-2.73-1.12-4.33-1.77c-1.61-0.67-3.3-1.38-5.09-2.14c-1.78-0.77-3.54-1.52-5.29-2.29c-1.75-0.76-3.44-1.51-5.08-2.23
	c-1.64-0.72-3.11-1.37-4.39-1.93L59.61,85.9h37.17C96.78,85.9,96.78,78.26,96.78,78.26z M52.96,71.63l4.77-4.77
	c0.91-0.91,0.91-2.4,0-3.32l-6.3-2.69h-2.39l-6.77,2.69c-0.91,0.91-0.91,2.4,0,3.32l4.77,4.77L44.9,85.9H55.1L52.96,71.63z"/>
<g>
	<g>
		<path class="st1" d="M4.24,93.98c26.93,0,53.86,0,80.78,0c3.92,0,7.84,0,11.76,0c0.97,0,0.97-1.5,0-1.5c-26.93,0-53.86,0-80.78,0
			c-3.92,0-7.84,0-11.76,0C3.28,92.48,3.27,93.98,4.24,93.98L4.24,93.98z"/>
	</g>
</g>
</svg>
