<?xml version="1.0" encoding="utf-8"?>
<!-- Generator: Adobe Illustrator 23.0.3, SVG Export Plug-In . SVG Version: 6.00 Build 0)  -->
<svg version="1.1" id="Layer_1" xmlns="http://www.w3.org/2000/svg" xmlns:xlink="http://www.w3.org/1999/xlink" x="0px" y="0px"
	 viewBox="0 0 100 100" style="enable-background:new 0 0 100 100;" xml:space="preserve">
<style type="text/css">
	.st0{fill-rule:evenodd;clip-rule:evenodd;fill:#293462;}
</style>
<g>
	<path class="st0" d="M68.03,47.38l0.02-0.09L68.03,47.38L68.03,47.38z M60.2,53.43c-2.7,0-0.94-5.97-0.47-7.31
		c0.5-1.43,1.87-4.4,3.05-5.27c1.36-1.01,2.85-1.01,4.47-0.77c0.36,0.05,1.92,0.38,2.27,0.55l-0.57,2.83l-0.92,1.85
		c-0.31,0.6-1.22,2.07-1.6,2.58l-1.79,2.31l-1.67,1.82C62.38,52.59,61.02,53.43,60.2,53.43L60.2,53.43z M68.03,47.38
		c0,0.27-0.38,2.07-0.46,2.48c-0.16,0.82-0.31,1.63-0.48,2.46c-0.33,1.64,0.11,3.62,2.05,3.63c1.89,0.01,3.59-1.18,4.78-2.19
		c0.42-0.36,0.56-0.52,0.95-0.91c0.13-0.13,0.61-0.69,0.66-0.83c0.04-0.11,0.2-1.14,0.2-1.29l-0.97,1.02
		c-0.01,0.01-0.01,0.02-0.02,0.02c-0.04,0.04,0,0-0.07,0.06c-0.54,0.46-0.98,0.97-1.65,1.42c-0.56,0.38-1.72,1.21-2.43,0.79
		c-0.74-0.44-0.28-2.17-0.16-2.8c0.09-0.46,0.2-0.94,0.3-1.44c0.48-2.41,1.04-4.81,1.51-7.19l0.91-4.35c-0.46,0-0.96-0.08-1.24-0.09
		c-1.82-0.09-3.72-0.18-5.52,0.11c-1.03,0.17-1.94,0.42-2.78,0.79c-0.66,0.28-1.43,0.72-2,1.15l-0.74,0.59
		c-0.75,0.56-1.72,1.51-2.28,2.2c-1.51,1.87-2.42,3.61-2.98,5.97c-0.41,1.77-0.51,4.28,0.68,5.88c1.35,1.81,3.43,1.12,5.05,0.15
		c0.45-0.27,0.86-0.61,1.27-0.93c0.1-0.07,0.15-0.13,0.24-0.21c0.53-0.43,0.9-0.83,1.38-1.31l0.85-0.94c0.8-0.95,2.12-2.8,2.73-3.98
		C67.92,47.51,67.91,47.46,68.03,47.38L68.03,47.38z"/>
	<path class="st0" d="M25.48,34.45l-2.84-0.03v-1.67l3.17-0.02c0-0.28,0.12-0.69,0.17-0.97c0.49-2.45,0.43-3.98,2.03-5.96
		c1.17-1.44,3.16-1.93,4.98-1.39c0.32,0.1,0.56,0.2,0.83,0.33l0.77,0.39l2.45-2.43c-0.23-0.02-0.64-0.1-0.85-0.12
		c-2.85-0.15-5.39,0.06-7.92,1.58c-2.82,1.71-4.86,4.82-5.56,8.03c-0.15,0.69-0.06,0.54-0.39,0.52l-3.9-0.01
		c-0.22,0.01-0.2,0.03-0.21,0.25l0.01,1.5h4.06c0,0.24-0.27,1.59-0.33,1.95c-0.11,0.64-0.23,1.27-0.35,1.93
		c-0.48,2.53-0.89,5.27-1.38,7.78c-0.13,0.65-0.23,1.29-0.34,1.94c-0.11,0.65-0.23,1.3-0.35,1.96c-0.62,3.45-1.02,8.27-4.96,8.75
		c-1.6,0.2-2.64-0.22-3.97-0.53l-0.49,0.59c-0.17,0.21-0.35,0.38-0.52,0.6l-0.89,1.02c-0.11,0.14-0.15,0.14-0.17,0.34
		c2.06,0,4.12,0.25,6.09-0.46c0.16-0.06,0.31-0.12,0.48-0.18c1.01-0.4,1.72-0.9,2.54-1.56l0.68-0.64c0.2-0.26,0.59-0.65,0.95-1.13
		c0.2-0.27,0.37-0.53,0.56-0.81c0.18-0.27,0.32-0.53,0.49-0.83c1.48-2.65,2.42-6.25,3-9.21c0.15-0.73,0.32-1.54,0.44-2.29
		c0.38-2.26,0.89-4.64,1.28-6.88L25.48,34.45L25.48,34.45z"/>
	<path class="st0" d="M25.48,34.45l65.29,0l0.7-1.74L79.5,32.7l-0.58,0.03c-0.51-0.07-26.43-0.01-26.6-0.01c-8.3,0-16.6,0-24.9,0
		c-0.47,0-1.28,0.04-1.62,0.02l-3.17,0.02v1.67L25.48,34.45L25.48,34.45z"/>
	<path class="st0" d="M79.92,39.63c0.53,0,1.11-0.04,1.52,0.38c0.7,0.71,0.26,2.09,0.1,2.9c-0.11,0.59-0.21,1.12-0.32,1.71
		l-0.97,5.08c-0.19,0.93-0.92,4.49-0.92,5.17c0,0.97,0.07,2,0.75,2.69c0.67,0.67,1.19,0.88,2.23,0.88c1.41,0,3.08-0.89,4.18-1.62
		l2.43-1.92c0.06-0.14,0.02-1.19,0.02-1.43c-0.19,0.05-0.38,0.36-0.62,0.55c-0.77,0.61-1.03,0.94-2.04,1.56
		c-0.59,0.35-1.91,1-2.5,0.28c-0.54-0.67-0.28-1.92-0.12-2.69l3.5-17.26c-0.2,0.1-0.56,0.18-0.81,0.26c-1.33,0.44-2.8,0.86-4.12,1.3
		l-4.12,1.31c-0.44,0.12-0.7,0.16-0.72,0.4c-0.11,1.24-0.14,1.11,0.28,0.99c0.13-0.04,0.31-0.08,0.46-0.12
		C78.47,39.94,79.61,39.63,79.92,39.63L79.92,39.63z"/>
	<path class="st0" d="M43.05,43.03c0,1.4,0.43,2.33,1.25,3.14l2.36,2.66c0.38,0.48,0.75,0.72,1.1,1.43
		c0.81,1.63,0.42,3.38-1.54,3.82c-0.46,0.1-0.77,0.07-1.23,0.06c-0.65-0.02-1.54-0.33-2.13-0.56c-0.92-0.37-1.05-0.53-1.8-0.93
		c-0.15,0.22-1.11,1.15-1.32,1.38l-0.8,0.86c0.35,0.19,1.67,0.58,2.04,0.65c2.65,0.56,5.23,0.41,7.46-1.13
		c0.52-0.36,1.21-1.04,1.53-1.58c0.22-0.36,0.35-0.59,0.5-1.03c0.47-1.42,0.17-2.89-0.72-4l-2.72-3.33
		c-0.33-0.41-0.82-0.93-1.04-1.37c-0.29-0.59-0.52-1.1-0.43-1.93c0.14-1.32,1.64-2.07,2.78-2.07c0.52,0,0.94-0.01,1.45,0.17
		c0.75,0.27,1.54,0.86,1.54,1.78c0,0.68-0.05,0.52-0.08,0.91h1.04c0.09-0.19,0.36-1.43,0.43-1.73l0.4-1.79
		c-0.39-0.09-0.66-0.29-1.54-0.44c-1.77-0.3-3.4-0.17-5.04,0.57c-0.59,0.26-1.36,0.71-1.81,1.17l-0.38,0.37
		C43.62,40.92,43.05,41.79,43.05,43.03L43.05,43.03z"/>
	<path class="st0" d="M28.42,43.15c0,0.87,0.32,1.88,0.85,2.55l1.99,2.24c0.08,0.1,0.12,0.13,0.2,0.21l1.02,1.14
		c0.44,0.43,1.09,1.5,1.09,2.35c0,0.81-0.22,1.49-0.81,1.93c-1.55,1.16-3.8,0.39-5.31-0.37c-0.17-0.08-0.31-0.17-0.48-0.26
		c-0.15-0.08-0.32-0.22-0.49-0.26l-1.6,1.63c-0.21,0.28-0.46,0.42-0.51,0.61c0.18,0.04,0.31,0.1,0.46,0.16
		c0.17,0.06,0.34,0.11,0.5,0.17c2.68,0.9,6.23,0.86,8.49-0.81c0.59-0.44,1.08-0.87,1.49-1.49c1.12-1.66,1.04-3.61-0.17-5.19
		l-3.47-4.23c-0.16-0.18-0.22-0.31-0.33-0.54c-0.24-0.54-0.38-0.85-0.38-1.52c0-3.01,5.8-3.21,5.8-0.21c0,0.3-0.08,0.45-0.08,0.7
		c1.2,0,1.04,0.09,1.13-0.36c0.04-0.17,0.07-0.31,0.1-0.44c0.1-0.4,0.54-2.51,0.63-2.68c-0.84-0.45-2.2-0.62-3.35-0.62
		c-1.86,0-4.01,0.84-4.96,1.79c-0.14,0.14-0.25,0.2-0.39,0.35c-0.09,0.09-0.09,0.12-0.17,0.21c-0.58,0.68-0.99,1.3-1.15,2.25
		C28.48,42.62,28.42,42.97,28.42,43.15L28.42,43.15z"/>
	<path class="st0" d="M82.16,31.22c-0.23,0.33-0.93,0.7-1.38,0.85c-0.33,0.11-0.97,0.27-1.36,0.3c-0.2,0.01-0.37,0.04-0.54,0.04
		c0,0.17-0.01,0.18,0.04,0.3l0.58-0.03c0.1-0.05,1.39-0.08,2.43-0.83c0.66-0.47,0.15-0.32,0.91-0.42c0.24-0.03,0.36-0.03,0.59-0.08
		c3.44-0.7,4.8-5.18,4.82-8.35l0.07-1.25c0.05-0.34,0.01-0.94,0.01-1.31h-0.08c-0.04,0.55-1.06,2.09-1.41,2.57
		C84.71,25.4,81.4,27.74,82.16,31.22L82.16,31.22z"/>
	<path class="st0" d="M81.91,30.1L81.91,30.1L81.91,30.1z"/>
	<path class="st0" d="M79.88,28.5c0.84,0,1.53,0.68,1.53,1.53c0,0.84-0.68,1.53-1.53,1.53c-0.84,0-1.53-0.68-1.53-1.53
		C78.36,29.19,79.04,28.5,79.88,28.5L79.88,28.5z"/>
	<path class="st0" d="M85.83,59.72L85,61.38H8.52v-0.31c3.98,0.27,6.6-0.26,8.3-1.35L85.83,59.72L85.83,59.72z"/>
</g>
<path class="st0" d="M9.9,76.45h79.16c1.65,0,1.65,2.2,0,2.2H9.9C8.09,78.65,8.09,76.45,9.9,76.45z"/>
</svg>
