<?xml version="1.0" encoding="utf-8"?>
<!-- Generator: Adobe Illustrator 23.0.3, SVG Export Plug-In . SVG Version: 6.00 Build 0)  -->
<svg version="1.1" id="Layer_1" xmlns="http://www.w3.org/2000/svg" xmlns:xlink="http://www.w3.org/1999/xlink" x="0px" y="0px"
	 viewBox="0 0 100 100" style="enable-background:new 0 0 100 100;" xml:space="preserve">
<style type="text/css">
	.st0{fill:#293462;}
	.st1{fill-rule:evenodd;clip-rule:evenodd;fill:#293462;}
</style>
<g>
	<path class="st0" d="M61.5,14.36c0-1.2-0.96-2.19-2.17-2.21H42.01c-1.2,0.02-2.17,1-2.17,2.21v7.54H61.5V14.36z"/>
	<path class="st0" d="M72.41,18.29h-8.02v5.12c-0.01,0.77-0.64,1.38-1.4,1.38c-0.01,0-0.03,0-0.04,0H38.4
		c-0.77,0.03-1.41-0.57-1.45-1.33c0-0.01,0-0.03,0-0.04v-5.12h-8.02c-2.49,0-4.44,2.06-4.44,4.55v53.4
		c-0.04,2.46,1.93,4.48,4.39,4.52c0.02,0,0.03,0,0.05,0h43.48c2.46-0.01,4.45-2.01,4.44-4.47c0-0.02,0-0.03,0-0.05v-53.4
		C76.85,20.35,74.9,18.29,72.41,18.29z M47.63,33.63h-4.07c-0.8,0-1.44-0.65-1.44-1.44c0-0.8,0.65-1.44,1.44-1.44h14.23
		c0.8,0,1.44,0.65,1.44,1.44c0,0.8-0.65,1.44-1.44,1.44h-4.23c0.72,0.9,1.23,1.95,1.48,3.07h2.75c0.8,0,1.44,0.65,1.44,1.44
		s-0.65,1.44-1.44,1.44h-2.75c-0.64,3.58-3.78,6.17-7.41,6.14h-0.44l7.54,7.14c0.58,0.55,0.61,1.47,0.06,2.06
		c-0.55,0.58-1.46,0.6-2.04,0.06c0,0,0,0,0,0l-10.18-9.62c-0.58-0.56-0.6-1.48-0.05-2.07c0.27-0.28,0.65-0.45,1.04-0.45h4.07
		c2.04,0.03,3.85-1.3,4.43-3.25h-8.51c-0.8,0-1.44-0.65-1.44-1.44s0.65-1.44,1.44-1.44h8.51C51.45,34.9,49.69,33.63,47.63,33.63z
		 M33.45,58.73h16.84c0.8,0,1.44,0.65,1.44,1.44c0,0.8-0.65,1.44-1.44,1.44H33.45c-0.8,0-1.44-0.65-1.44-1.44
		C32,59.37,32.65,58.73,33.45,58.73z M67.89,70.46H33.45c-0.8,0-1.44-0.65-1.44-1.44c0-0.8,0.65-1.44,1.44-1.44h34.44
		c0.8,0,1.44,0.65,1.44,1.44C69.34,69.82,68.69,70.46,67.89,70.46L67.89,70.46z"/>
	<path class="st0" d="M50.67,5.25c-2.21,0.02-4,1.8-4.02,4.01h8.04C54.67,7.05,52.88,5.27,50.67,5.25z"/>
</g>
<path class="st1" d="M23.85,88.66H78.8c1.15,0,1.15,1.72,0,1.72H23.85C22.59,90.39,22.59,88.66,23.85,88.66z"/>
</svg>
