<?xml version="1.0" encoding="utf-8"?>
<!-- Generator: Adobe Illustrator 23.0.3, SVG Export Plug-In . SVG Version: 6.00 Build 0)  -->
<svg version="1.1" id="Layer_1" xmlns="http://www.w3.org/2000/svg" xmlns:xlink="http://www.w3.org/1999/xlink" x="0px" y="0px"
	 viewBox="0 0 100 100" style="enable-background:new 0 0 100 100;" xml:space="preserve">
<style type="text/css">
	.st0{fill:#293562;}
	.st1{fill-rule:evenodd;clip-rule:evenodd;fill:#293562;}
</style>
<g>
	<path class="st0" d="M64.2,60.12c-1.46,0-2.65,1.15-2.65,2.55s1.19,2.55,2.65,2.55V60.12z"/>
	<path class="st0" d="M66.85,72.89c1.46,0,2.65-1.15,2.65-2.55s-1.19-2.55-2.65-2.55V72.89z"/>
	<path class="st0" d="M66.85,6.48H12.53v76.63h1.32H47.9c-3.71-2.55-6.23-6.77-6.23-11.49c0-3.32,1.19-6.64,3.44-9.2l9.67-10.73
		c-1.46-0.89-2.52-2.55-2.52-4.34c0-2.3,1.59-4.34,3.84-4.85l-5.03-13.03h15.77V6.48z M19.95,14.91c1.59-1.53,4.11-1.53,5.56,0l0,0
		c1.59,1.53,1.59,3.96,0,5.36c-0.79,0.77-1.85,1.15-2.78,1.15c-1.06,0-1.99-0.38-2.78-1.15C18.49,18.87,18.49,16.44,19.95,14.91z
		 M19.95,29.34l14.97-14.43l1.85,1.79L21.94,31.26L19.95,29.34z M36.91,31.26c-0.79,0.77-1.85,1.15-2.78,1.15
		c-1.06,0-1.99-0.38-2.78-1.15c-1.59-1.53-1.59-3.96,0-5.36c1.59-1.53,4.11-1.53,5.56,0l0,0C38.36,27.3,38.36,29.73,36.91,31.26z"/>
	<polygon class="st0" points="72.15,42.24 76.12,32.02 54.92,32.02 58.9,42.24 	"/>
	<path class="st0" d="M73.47,49.9h-15.9c-1.46,0-2.65-1.15-2.65-2.55l0,0c0-1.4,1.19-2.55,2.65-2.55h15.9
		c1.46,0,2.65,1.15,2.65,2.55l0,0C76.12,48.75,74.93,49.9,73.47,49.9z"/>
	<path class="st0" d="M83.94,64.08L73.47,52.46h-15.9L47.11,64.08c-1.72,2.04-2.78,4.73-2.78,7.53c0,6.39,5.3,11.49,11.92,11.49
		H74.8c6.62,0,11.92-5.11,11.92-11.62C86.72,68.8,85.66,66.12,83.94,64.08z M72.15,70.34c0,2.81-2.38,5.11-5.3,5.11V78H64.2v-2.55
		c-2.91,0-5.3-2.3-5.3-5.11h2.65c0,1.4,1.19,2.55,2.65,2.55v-5.11c-2.91,0-5.3-2.3-5.3-5.11s2.38-5.11,5.3-5.11v-2.55h2.65v2.55
		c2.91,0,5.3,2.3,5.3,5.11H69.5c0-1.4-1.19-2.55-2.65-2.55v5.11C69.76,65.23,72.15,67.53,72.15,70.34z"/>
</g>
<path class="st1" d="M10.1,88.57h79.16c1.65,0,1.65,2.2,0,2.2H10.1C8.29,90.77,8.29,88.57,10.1,88.57z"/>
</svg>
