<?xml version="1.0" encoding="utf-8"?>
<!-- Generator: Adobe Illustrator 23.0.3, SVG Export Plug-In . SVG Version: 6.00 Build 0)  -->
<svg version="1.1" id="Layer_1" xmlns="http://www.w3.org/2000/svg" xmlns:xlink="http://www.w3.org/1999/xlink" x="0px" y="0px"
	 viewBox="0 0 100 100" style="enable-background:new 0 0 100 100;" xml:space="preserve">
<style type="text/css">
	.st0{fill-rule:evenodd;clip-rule:evenodd;fill:#293462;}
</style>
<g>
	<path class="st0" d="M24.68,89.68c-0.8,0.92-1.49,1.72-2.29,2.52c0.34-1.03,0.69-2.07,1.03-3.21L24.68,89.68z"/>
	<path class="st0" d="M40.29,49.53l7.34,4.24l0,0h0.11l0,0v0.11l0,0l2.75,1.49c-7.46,12.16-16.06,24.44-25.12,33.5l-1.49-0.92
		C27.09,75.57,33.52,62.03,40.29,49.53z"/>
	<path class="st0" d="M61.39,9.26c-4.82,8.37-9.64,16.75-14.46,25.24c-1.15,1.95-2.64,2.64-4.82,1.61
		c4.82-8.37,9.75-16.75,14.57-25.12C57.84,9.03,59.33,8.23,61.39,9.26z"/>
	<path class="st0" d="M78.03,7.88L51.76,53.31l-1.95-1.15l23.52-40.73c0.57-1.15-1.15-2.07-1.72-0.92L48.09,51.14l-6.54-3.79
		L63.23,9.72c2.75-4.82,4.82-7.57,9.98-4.59L78.03,7.88z"/>
	<path class="st0" d="M22.5,94.39h54.95c1.15,0,1.15,1.72,0,1.72H22.5C21.24,96.11,21.24,94.39,22.5,94.39z"/>
</g>
</svg>
