<?xml version="1.0" encoding="utf-8"?>
<!-- Generator: Adobe Illustrator 23.0.3, SVG Export Plug-In . SVG Version: 6.00 Build 0)  -->
<svg version="1.1" id="Layer_1" xmlns="http://www.w3.org/2000/svg" xmlns:xlink="http://www.w3.org/1999/xlink" x="0px" y="0px"
	 viewBox="0 0 100 100" style="enable-background:new 0 0 100 100;" xml:space="preserve">
<style type="text/css">
	.st0{fill:#293562;}
	.st1{fill-rule:evenodd;clip-rule:evenodd;fill:#293562;}
</style>
<g>
	<path class="st0" d="M30.7,13.35c0-1.04,0.85-1.88,1.89-1.88c0.01,0,0.01,0,0.02,0h9.07c1.02-0.01,1.85,0.81,1.85,1.83
		c0,0.02,0,0.03,0,0.05v3.6h2.02v-3.6c0.02-2.13-1.69-3.88-3.83-3.9c-0.02,0-0.03,0-0.05,0H32.6c-2.16-0.01-3.91,1.73-3.92,3.89
		c0,0,0,0.01,0,0.01v3.6h2.02V13.35z"/>
	<path class="st0" d="M18.62,25.9l17.97,5.61c0.56,0.17,1.16,0.17,1.72,0L56.3,25.9c0.8-0.24,1.35-0.98,1.36-1.82v-4.24
		c-0.02-1.06-0.89-1.9-1.95-1.89H19.17c-1.03-0.01-1.87,0.82-1.88,1.85c0,0.01,0,0.02,0,0.03v4.24
		C17.28,24.91,17.82,25.65,18.62,25.9z M30.71,22.28h13.47c0.56,0,1.01,0.45,1.01,1.01c0,0.56-0.45,1.01-1.01,1.01H30.71
		c-0.56,0-1.01-0.45-1.01-1.01C29.7,22.73,30.15,22.28,30.71,22.28z"/>
	<path class="st0" d="M45.5,53.85c0.04-1.54,0.17-3.09,0.4-4.61h-8.4c-0.37,1.51-0.58,3.06-0.64,4.61H45.5z"/>
	<path class="st0" d="M55.5,45.32V28.25l-16.62,5.18c-0.47,0.15-0.95,0.22-1.45,0.22c-0.5,0-0.99-0.08-1.47-0.22l-16.65-5.18v17.08
		c0.02,1.06,0.89,1.9,1.95,1.9h32.37c1.03,0,1.87-0.84,1.87-1.87C55.5,45.34,55.5,45.33,55.5,45.32z"/>
	<path class="st0" d="M61.7,31.33v14.59c3.53-0.12,6.99-1.05,10.12-2.7C69.79,37.96,66.31,33.8,61.7,31.33z"/>
	<path class="st0" d="M73.56,42.19c1.62-1.05,3.11-2.29,4.43-3.7c-3.3-3.5-7.57-5.92-12.26-6.94C69.17,34.2,71.83,37.85,73.56,42.19
		z"/>
	<path class="st0" d="M75.84,53.85h8.64c-0.21-5.04-2.02-9.87-5.16-13.81c-1.5,1.58-3.21,2.96-5.06,4.11
		C75.25,47.29,75.78,50.56,75.84,53.85z"/>
	<path class="st0" d="M72.47,45.16c-3.34,1.7-7.02,2.65-10.78,2.78v5.91h12.13C73.77,50.91,73.32,47.98,72.47,45.16z"/>
	<path class="st0" d="M47.09,65.59c-0.99-3.15-1.52-6.42-1.59-9.72h-8.64c0.21,5.03,2.02,9.87,5.16,13.81
		C43.53,68.11,45.23,66.73,47.09,65.59z"/>
	<path class="st0" d="M73.83,55.87H61.7v5.87c3.75,0.13,7.43,1.09,10.78,2.8C73.31,61.73,73.76,58.81,73.83,55.87z"/>
	<path class="st0" d="M47.79,67.52c-1.62,1.04-3.11,2.28-4.44,3.68c3.29,3.49,7.57,5.91,12.26,6.94
		C52.17,75.49,49.52,71.86,47.79,67.52z"/>
	<path class="st0" d="M59.68,31.33c-0.72,0.39-1.44,0.82-2.16,1.3v12.7c0.01,0.14,0.01,0.28,0,0.41c0.71,0.09,1.44,0.16,2.16,0.18
		V31.33z"/>
	<path class="st0" d="M65.73,78.14c4.69-1.02,8.97-3.44,12.26-6.94c-1.32-1.41-2.81-2.65-4.43-3.7
		C71.83,71.84,69.17,75.48,65.73,78.14z"/>
	<path class="st0" d="M79.32,69.68c3.14-3.94,4.95-8.77,5.16-13.81h-8.64c-0.07,3.29-0.6,6.55-1.58,9.69
		C76.12,66.71,77.82,68.09,79.32,69.68z"/>
	<path class="st0" d="M71.82,66.47c-3.13-1.65-6.58-2.58-10.12-2.7v14.6C66.31,75.89,69.79,71.74,71.82,66.47z"/>
	<path class="st0" d="M59.68,55.87H47.52c0.07,2.95,0.54,5.87,1.38,8.7c3.35-1.71,7.03-2.67,10.79-2.82V55.87z"/>
	<path class="st0" d="M59.68,47.94c-0.97-0.04-1.94-0.13-2.9-0.28c-0.74,0.99-1.91,1.58-3.16,1.58h-5.68
		c-0.25,1.53-0.39,3.07-0.42,4.61h12.16V47.94z"/>
	<path class="st0" d="M59.68,63.77c-3.53,0.14-6.98,1.07-10.11,2.72c2.03,5.26,5.49,9.41,10.11,11.87V63.77z"/>
</g>
<path class="st1" d="M8.77,84.25H90.5c1.7,0,1.7,2.2,0,2.2H8.77C6.9,86.45,6.9,84.25,8.77,84.25z"/>
</svg>
