<?xml version="1.0" encoding="utf-8"?>
<!-- Generator: Adobe Illustrator 23.0.3, SVG Export Plug-In . SVG Version: 6.00 Build 0)  -->
<svg version="1.1" id="Layer_1" xmlns="http://www.w3.org/2000/svg" xmlns:xlink="http://www.w3.org/1999/xlink" x="0px" y="0px"
	 viewBox="0 0 100 100" style="enable-background:new 0 0 100 100;" xml:space="preserve">
<style type="text/css">
	.st0{fill-rule:evenodd;clip-rule:evenodd;fill:#293562;}
	.st1{fill:#293562;}
	.st2{font-family:'Bauhaus93';}
	.st3{font-size:60.3977px;}
</style>
<path class="st0" d="M11.64,76.34h74.28c1.55,0,1.55,1.97,0,1.97H11.64C9.93,78.31,9.93,76.34,11.64,76.34z"/>
<text transform="matrix(1 0 0 1 9.4778 68.0961)" class="st1 st2 st3">TM</text>
<g>
	<g>
		<path class="st1" d="M43.94,8.11c-1.08-0.32-2.12-0.79-3.07-1.39c1.81-2.07,4.3-3.43,7.02-3.82C46.23,3.67,44.82,5.57,43.94,8.11z
			"/>
		<path class="st1" d="M49.29,3.04v5.88h-0.05c-1.62-0.02-3.24-0.24-4.81-0.67C45.45,5.24,47.24,3.21,49.29,3.04z"/>
		<path class="st1" d="M42.96,14.04h-4.93c0.05-2.53,0.94-4.97,2.53-6.94c1,0.65,2.08,1.15,3.22,1.49
			C43.24,10.36,42.97,12.19,42.96,14.04z"/>
		<path class="st1" d="M41.35,21.08c-0.26,0.15-0.51,0.3-0.77,0.46c-1.61-1.98-2.51-4.44-2.56-6.98h4.86
			c-0.32,0.53-0.59,1.09-0.81,1.67C41.49,17.77,41.24,19.43,41.35,21.08z"/>
		<path class="st1" d="M41.4,21.62c0.04,0.33,0.08,0.64,0.13,0.94c-0.21-0.21-0.42-0.43-0.62-0.65
			C41.07,21.81,41.23,21.71,41.4,21.62z"/>
		<path class="st1" d="M47.89,25.69c-1.75-0.25-3.41-0.91-4.86-1.91c0.08-1.09,0.33-2.17,0.74-3.19l0.19-0.06
			C44.84,23.05,46.24,24.92,47.89,25.69z"/>
		<path class="st1" d="M44.44,20.39c1.59-0.43,3.22-0.65,4.86-0.66v5.82C47.25,25.39,45.48,23.37,44.44,20.39z"/>
		<path class="st1" d="M49.29,14.55v4.67c-1.69,0.01-3.38,0.25-5.01,0.7c-0.03-0.09-0.05-0.18-0.08-0.26l0,0
			c0.88-1.74,2.32-3.49,4.57-5.12H49.29z"/>
		<path class="st1" d="M49.8,19.73c1.64,0.01,3.28,0.23,4.86,0.66c-1.05,2.98-2.81,4.99-4.86,5.16V19.73z"/>
		<path class="st1" d="M55.12,20.53c1.07,0.32,2.1,0.78,3.05,1.38c-1.81,2.05-4.28,3.39-6.98,3.78
			C52.84,24.92,54.24,23.05,55.12,20.53z"/>
		<path class="st1" d="M49.8,19.22v-4.67h5.82c-0.01,1.82-0.28,3.63-0.81,5.37C53.17,19.47,51.49,19.24,49.8,19.22z"/>
		<path class="st1" d="M43.48,13.67c0.04-1.67,0.3-3.34,0.79-4.94c1.34,0.37,2.72,0.6,4.11,0.67
			C46.28,10.62,44.65,12.04,43.48,13.67z"/>
		<path class="st1" d="M52.24,7.57c-0.86,0.33-1.68,0.68-2.44,1.06v-5.6c1.18,0.09,2.27,0.81,3.18,1.97l-2.12-0.33L52.24,7.57z"/>
		<path class="st1" d="M55.62,14.04H49.8v-0.17c1.48-0.93,3.03-1.72,4.65-2.36l0.2-0.08l0.95,1.96
			C55.61,13.6,55.61,13.82,55.62,14.04z"/>
		<path class="st1" d="M57.16,5.66l-3.49-0.54c-0.61-0.95-1.47-1.71-2.47-2.23C53.41,3.22,55.48,4.18,57.16,5.66z"/>
		<path class="st1" d="M61.05,14.04h-4.73l3.02-5.78C60.42,10,61.01,11.99,61.05,14.04z"/>
		<path class="st1" d="M56.13,14.55h4.93C61,17.1,60.1,19.56,58.5,21.53c-1-0.64-2.08-1.13-3.21-1.48
			C55.84,18.27,56.12,16.42,56.13,14.55z"/>
		<path class="st1" d="M59.66,6.56l-0.63,1.21l-2.9,5.54l-0.03-0.05l-0.61-1.28l0,0l-0.59-1.23l-0.23,0.1
			c-0.09,0.04-0.23,0.1-0.41,0.17c-1.55,0.62-3.04,1.37-4.46,2.25c-0.17,0.11-0.35,0.21-0.51,0.32c-0.23,0.15-0.45,0.3-0.67,0.46
			c-0.22,0.15-0.47,0.34-0.69,0.51c-1.58,1.18-2.92,2.66-3.92,4.36c-0.13,0.21-0.24,0.43-0.35,0.65s-0.2,0.42-0.28,0.63
			s-0.17,0.41-0.24,0.62c-0.3,0.85-0.5,1.72-0.59,2.62c-0.03,0.26-0.05,0.53-0.06,0.8c-0.1-0.31-0.2-0.68-0.3-1.08l0,0
			c-0.14-0.59-0.23-1.19-0.28-1.79c-0.02-0.17-0.03-0.35-0.03-0.53c-0.08-1.5,0.16-3,0.7-4.41c0.12-0.32,0.27-0.64,0.42-0.94l0,0
			c0.15-0.29,0.31-0.58,0.48-0.86v-0.06h0.03c0.11-0.17,0.22-0.34,0.34-0.51c1.24-1.76,3.06-3.28,5.44-4.57
			c0.36-0.19,0.74-0.39,1.13-0.57l0,0c0.71-0.34,1.47-0.66,2.26-0.95l0.26-0.1l-1.19-2.52l1.66,0.26l0.64,0.1l3.77,0.58L59.66,6.56z
			"/>
	</g>
</g>
</svg>
