<?xml version="1.0" encoding="utf-8"?>
<!-- Generator: Adobe Illustrator 23.0.3, SVG Export Plug-In . SVG Version: 6.00 Build 0)  -->
<svg version="1.1" id="Layer_1" xmlns="http://www.w3.org/2000/svg" xmlns:xlink="http://www.w3.org/1999/xlink" x="0px" y="0px"
	 viewBox="0 0 100 100" style="enable-background:new 0 0 100 100;" xml:space="preserve">
<style type="text/css">
	.st0{fill:#293462;}
	.st1{fill-rule:evenodd;clip-rule:evenodd;fill:#293462;}
</style>
<g>
	<path class="st0" d="M24.53,47.64h50.93V26.83h-12.6c-2.78-0.02-5.02-2.29-5.01-5.08V9.66H29.1c-2.5,0-4.57,2.16-4.57,4.8V47.64z"
		/>
	<path class="st0" d="M60.19,21.75c-0.02,1.5,1.18,2.73,2.67,2.75c0,0,0,0,0,0h10.94L60.19,11.24V21.75z"/>
	<path class="st0" d="M57.63,63.42c1.14,0,1.83-0.63,1.83-2.01v-4.87c0-1.38-0.69-2.01-1.83-2.01c-1.15,0-1.81,0.63-1.81,2.01v4.87
		C55.82,62.79,56.48,63.42,57.63,63.42z"/>
	<path class="st0" d="M24.53,73.54c0,2.64,2.07,4.8,4.57,4.8H70.9c2.5,0,4.57-2.16,4.57-4.8v-4.07H24.53V73.54z"/>
	<path class="st0" d="M21.04,67.14h57.91V49.97H21.04V67.14z M53.49,56.54c0-2.92,1.83-4,4.14-4c2.3,0,4.16,1.08,4.16,4v4.87
		c0,2.92-1.85,4-4.16,4c-2.3,0-4.14-1.08-4.14-4V56.54z M42.49,55.95c0-2.6,2.24-3.49,4.24-3.49c1.03,0,3.32,0.24,3.32,1.4
		c0,0.4-0.28,1.2-0.91,1.2c-0.54,0-0.94-0.66-2.41-0.66c-1.26,0-1.97,0.51-1.97,1.34c0,2.17,5.61,1.41,5.61,5.94
		c0,2.5-1.75,3.79-4.16,3.79c-2.29,0-4.03-1.15-4.03-2.17c0-0.49,0.45-1.22,1-1.22c0.72,0,1.19,1.34,2.97,1.34
		c1.05,0,1.96-0.47,1.96-1.52C48.1,59.28,42.49,60.09,42.49,55.95L42.49,55.95z M36.76,53.24c0-0.49,0.52-0.7,1.09-0.7
		c0.56,0,1.09,0.21,1.09,0.7v11.35c0,0.47-0.53,0.72-1.09,0.72c-0.58,0-1.09-0.24-1.09-0.72V53.24z"/>
</g>
<path class="st1" d="M22.57,87.66h54.95c1.15,0,1.15,1.72,0,1.72H22.57C21.3,89.39,21.3,87.66,22.57,87.66z"/>
</svg>
