<?xml version="1.0" encoding="utf-8"?>
<!-- Generator: Adobe Illustrator 23.0.3, SVG Export Plug-In . SVG Version: 6.00 Build 0)  -->
<svg version="1.1" id="Layer_1" xmlns="http://www.w3.org/2000/svg" xmlns:xlink="http://www.w3.org/1999/xlink" x="0px" y="0px"
	 viewBox="0 0 100 100" style="enable-background:new 0 0 100 100;" xml:space="preserve">
<style type="text/css">
	.st0{fill:#293562;}
	.st1{fill-rule:evenodd;clip-rule:evenodd;fill:#293562;}
</style>
<g>
	<g>
		<path class="st0" d="M84.85,48.86l-5.49-8.85c-0.22-0.35-0.55-0.59-0.95-0.68c-0.11-0.03-0.23-0.04-0.34-0.04
			c-0.28,0-0.56,0.08-0.8,0.23l-1.8,1.12c-0.14,0.09-0.24,0.2-0.34,0.32c-0.05,0.06-0.11,0.13-0.15,0.2
			c-0.06,0.09-0.1,0.19-0.13,0.29c-0.02,0.07-0.05,0.14-0.07,0.22c-0.02,0.11-0.02,0.23-0.01,0.35c0,0.07,0,0.14,0.01,0.21
			c0.03,0.18,0.09,0.35,0.19,0.51c0,0.01,0.01,0.02,0.01,0.03l0.16,0.26l5.17,8.33c0,0,0,0,0,0l0.16,0.26
			c0.22,0.35,0.55,0.59,0.95,0.68c0.39,0.09,0.8,0.02,1.14-0.19l1.8-1.12C85.08,50.53,85.3,49.58,84.85,48.86z"/>
		<path class="st0" d="M62.47,62.46l-2.58-4.17l-2.74-4.43c-0.22-0.35-0.55-0.59-0.95-0.68c-0.11-0.03-0.23-0.04-0.34-0.04
			c-0.28,0-0.56,0.08-0.8,0.23l-1.8,1.12c-0.72,0.45-0.94,1.39-0.49,2.11l5.49,8.85c0.22,0.35,0.55,0.59,0.95,0.68
			c0.4,0.09,0.8,0.02,1.14-0.19l1.8-1.12c0.72-0.45,0.93-1.39,0.49-2.11L62.47,62.46L62.47,62.46z"/>
		<polygon class="st0" points="63.55,60.7 78.25,51.54 74.58,45.61 74.06,44.77 59.36,53.94 		"/>
		<path class="st0" d="M73.76,56.52l-3.57,2.22L70,58.86l1.28,2.06l4.11,6.63c0,0,0,0,0,0l5.32,8.58c0.22,0.35,0.55,0.59,0.95,0.68
			c0.39,0.09,0.8,0.02,1.14-0.19l1.17-0.73c0,0,0,0,0,0c0.72-0.45,0.94-1.39,0.49-2.11L73.76,56.52z"/>
		<path class="st0" d="M68.43,59.84l-3.95,2.46c0.58,1.49,0.04,3.22-1.35,4.1l-1.8,1.12c-0.54,0.34-1.15,0.51-1.78,0.51
			c-0.26,0-0.51-0.03-0.77-0.09c-0.88-0.2-1.63-0.74-2.1-1.51l-5.49-8.85c-0.98-1.58-0.5-3.67,1.08-4.65l1.8-1.12
			c0.77-0.48,1.67-0.63,2.55-0.42c0.67,0.16,1.27,0.51,1.72,1.01l14.8-9.23c0-0.01,0-0.02-0.01-0.02c-0.1-0.26-0.16-0.52-0.19-0.79
			c-0.01-0.06-0.01-0.12-0.01-0.18c-0.01-0.22-0.01-0.43,0.02-0.64c0.01-0.07,0.01-0.14,0.03-0.2c0.1-0.53,0.32-1.03,0.66-1.47
			c0.02-0.02,0.03-0.05,0.05-0.07V8.84c0-0.85-0.69-1.54-1.54-1.54H19.31c-0.85,0-1.54,0.69-1.54,1.54v61.57
			c0,0.85,0.69,1.54,1.54,1.54h52.82c0.85,0,1.54-0.69,1.54-1.54V68.3l-4.3-6.94L68.43,59.84z M26.58,19.18h38.29v1.85H26.58V19.18z
			 M26.58,32.19h38.29v1.85H26.58V32.19z M26.58,45.21h31.8v1.85h-31.8V45.21z M41.51,60.07H26.58v-1.85h14.93V60.07z"/>
	</g>
</g>
<path class="st1" d="M9.72,86.55h81.73c1.7,0,1.7,2.2,0,2.2H9.72C7.85,88.75,7.85,86.55,9.72,86.55z"/>
</svg>
