<?xml version="1.0" encoding="utf-8"?>
<!-- Generator: Adobe Illustrator 23.0.3, SVG Export Plug-In . SVG Version: 6.00 Build 0)  -->
<svg version="1.1" id="Layer_1" xmlns="http://www.w3.org/2000/svg" xmlns:xlink="http://www.w3.org/1999/xlink" x="0px" y="0px"
	 viewBox="0 0 100 100" style="enable-background:new 0 0 100 100;" xml:space="preserve">
<style type="text/css">
	.st0{fill:#293562;}
	.st1{fill-rule:evenodd;clip-rule:evenodd;fill:#293562;}
</style>
<g transform="translate(0,-952.36218)">
	<path class="st0" d="M21.33,959.26h58.47v60.36c-4.77,0-9.57,0-14.32,0c-0.43,0.08-0.77,0.5-0.77,0.94v14.15H21.33L21.33,959.26z
		 M40.87,964.92c-0.49,0.07-0.88,0.58-0.81,1.08c0.07,0.49,0.58,0.88,1.08,0.81H60c0.5,0.01,0.96-0.44,0.96-0.94
		c0-0.5-0.46-0.95-0.96-0.94C53.47,964.92,46.74,964.92,40.87,964.92z M27.67,972.46c-0.49,0.07-0.88,0.58-0.81,1.08
		c0.07,0.49,0.58,0.88,1.08,0.81h45.27c0.5,0.01,0.96-0.44,0.96-0.94c0-0.5-0.46-0.95-0.96-0.94
		C57.65,972.46,41.65,972.46,27.67,972.46z M27.67,980.01c-0.49,0.07-0.88,0.58-0.81,1.08c0.07,0.49,0.58,0.88,1.08,0.81h45.27
		c0.5,0.01,0.96-0.44,0.96-0.94c0-0.5-0.46-0.95-0.96-0.94C57.65,980.01,41.65,980.01,27.67,980.01z M27.67,987.55
		c-0.49,0.07-0.88,0.58-0.81,1.08c0.07,0.49,0.58,0.88,1.08,0.81h45.27c0.5,0.01,0.96-0.44,0.96-0.94c0-0.5-0.46-0.95-0.96-0.94
		C57.65,987.55,41.65,987.55,27.67,987.55z M27.67,995.1c-0.49,0.07-0.88,0.58-0.81,1.08c0.07,0.49,0.58,0.88,1.08,0.81h26.41
		c0.5,0.01,0.96-0.44,0.96-0.94s-0.46-0.95-0.96-0.94C45.23,995.1,35.86,995.1,27.67,995.1z M37.37,998.87
		c-0.81,0-1.58,3.34-1.8,4.92c-0.27,0.06-0.54,0.12-0.8,0.21c-0.98-1.27-3.31-3.76-4.01-3.36c-0.7,0.4,0.31,3.64,0.91,5.13
		c-0.21,0.19-0.4,0.38-0.59,0.59c-1.48-0.61-4.75-1.58-5.16-0.88c-0.4,0.7,2.09,3.03,3.36,4.01c-0.08,0.26-0.15,0.53-0.21,0.8
		c-1.58,0.21-4.92,0.99-4.92,1.8c0,0.81,3.34,1.58,4.92,1.8c0.06,0.27,0.12,0.54,0.21,0.8c-1.27,0.98-3.76,3.31-3.36,4.01
		c0.37,0.64,3.22-0.19,4.83-0.8v11.17c0.02,0.7,0.99,1.14,1.53,0.71l5.07-4.21l5.07,4.21c0.54,0.44,1.51-0.01,1.53-0.71v-11.17
		c1.62,0.61,4.46,1.44,4.83,0.8c0.4-0.7-2.09-3.03-3.36-4.01c0.08-0.26,0.15-0.53,0.21-0.8c1.58-0.21,4.92-0.99,4.92-1.8
		c0-0.81-3.34-1.58-4.92-1.8c-0.06-0.27-0.12-0.54-0.21-0.8c1.27-0.98,3.76-3.31,3.36-4.01c-0.4-0.7-3.68,0.28-5.16,0.88
		c-0.19-0.21-0.38-0.4-0.59-0.59c0.61-1.49,1.61-4.73,0.91-5.13c-0.7-0.4-3.03,2.09-4.01,3.36c-0.26-0.08-0.53-0.15-0.8-0.21
		C38.95,1002.21,38.18,998.87,37.37,998.87z M55.15,1003.72c0.07,0.49,0.58,0.88,1.08,0.81h16.98c0.5,0.01,0.96-0.44,0.96-0.94
		s-0.46-0.95-0.96-0.94c-5.71,0-11.46,0-17.15,0C55.4,1002.74,55.17,1003.27,55.15,1003.72z M37.37,1005.47c3.66,0,6.6,2.94,6.6,6.6
		c0,3.66-2.94,6.6-6.6,6.6s-6.6-2.94-6.6-6.6C30.76,1008.42,33.71,1005.47,37.37,1005.47z M60.92,1008.66
		c-1.17,0.08-2.22,0.76-3.12,1.77c-0.9,1.01-1.68,2.38-2.42,4.1c-0.29,0.46-0.08,1.16,0.42,1.38c0.5,0.22,1.16-0.11,1.29-0.64
		c0.68-1.59,1.42-2.81,2.12-3.6s1.34-1.08,1.86-1.12c0.52-0.04,1.08,0.14,1.8,0.88c0.72,0.74,1.51,2.01,2.27,3.83
		c0.18,0.44,0.73,0.69,1.18,0.53l5.33-1.89c0.47-0.17,0.74-0.75,0.57-1.22c-0.17-0.47-0.75-0.74-1.22-0.57l-4.6,1.62
		c-0.69-1.45-1.39-2.78-2.18-3.6C63.25,1009.13,62.09,1008.57,60.92,1008.66L60.92,1008.66z M32.65,1019.15
		c1.35,0.9,2.98,1.41,4.72,1.41s3.37-0.51,4.72-1.41v7.9l-4.13-3.45c-0.33-0.27-0.85-0.27-1.18,0l-4.13,3.45V1019.15z M66.6,1021.51
		h11.85c-1.07,1.07-2.96,2.96-5.92,5.92c-2.01,2.01-4.08,4.08-5.92,5.92V1021.51z"/>
</g>
<path class="st1" d="M9.2,88.05h81.73c1.7,0,1.7,2.2,0,2.2H9.2C7.33,90.25,7.33,88.05,9.2,88.05z"/>
</svg>
