<?xml version="1.0" encoding="utf-8"?>
<!-- Generator: Adobe Illustrator 23.0.3, SVG Export Plug-In . SVG Version: 6.00 Build 0)  -->
<svg version="1.1" id="Layer_1" xmlns="http://www.w3.org/2000/svg" xmlns:xlink="http://www.w3.org/1999/xlink" x="0px" y="0px"
	 viewBox="0 0 100 100" style="enable-background:new 0 0 100 100;" xml:space="preserve">
<style type="text/css">
	.st0{fill:#293562;}
	.st1{fill-rule:evenodd;clip-rule:evenodd;fill:#293562;}
</style>
<g>
	<path class="st0" d="M52.43,58.4c-0.38,0-0.76,0.15-1.03,0.42L50,60.23l-1.41-1.41c-0.27-0.27-0.65-0.42-1.03-0.42
		c-0.8,0-1.45,0.65-1.45,1.45c0,0.38,0.15,0.76,0.42,1.03L50,64.34l3.46-3.46c0.27-0.27,0.42-0.65,0.42-1.03
		C53.88,59.05,53.23,58.4,52.43,58.4z"/>
	<path class="st0" d="M62.81,58.48l-1.06-0.64l0.6-1.09c0.5-0.92,0.5-1.99-0.02-2.88c-0.51-0.89-1.44-1.43-2.49-1.46l-1.24-0.03
		l-0.03-1.24c-0.02-1.05-0.57-1.98-1.46-2.49c-0.89-0.51-1.97-0.52-2.88-0.02l-1.09,0.6l-0.64-1.06c-0.54-0.89-1.48-1.43-2.51-1.43
		s-1.96,0.53-2.51,1.43l-0.64,1.06l-1.09-0.6c-0.92-0.51-2-0.5-2.88,0.02c-0.89,0.51-1.43,1.44-1.46,2.49l-0.03,1.24l-1.24,0.03
		c-1.05,0.02-1.98,0.57-2.49,1.46c-0.51,0.89-0.52,1.97-0.02,2.88l0.6,1.09l-1.06,0.64c-0.89,0.54-1.43,1.48-1.43,2.51
		c0,1.03,0.53,1.96,1.43,2.51l1.06,0.64l-0.6,1.09c-0.5,0.92-0.5,2,0.02,2.88c0.51,0.89,1.44,1.43,2.49,1.46l1.24,0.03l0.03,1.24
		c0.02,1.05,0.57,1.98,1.46,2.49c0.89,0.51,1.97,0.52,2.88,0.02l1.09-0.6l0.64,1.06c0.54,0.89,1.48,1.43,2.51,1.43
		s1.96-0.53,2.51-1.43l0.64-1.06l1.09,0.6c0.92,0.51,2,0.5,2.88-0.02c0.89-0.51,1.43-1.44,1.46-2.49l0.03-1.24l1.24-0.03
		c1.05-0.02,1.98-0.57,2.49-1.46c0.51-0.89,0.52-1.97,0.02-2.88l-0.6-1.09l1.06-0.64c0.89-0.54,1.43-1.48,1.43-2.51
		C64.24,59.96,63.71,59.02,62.81,58.48z M50,72.64c-6.42,0-11.65-5.23-11.65-11.65S43.58,49.34,50,49.34
		c6.42,0,11.65,5.23,11.65,11.65C61.65,67.41,56.42,72.64,50,72.64z"/>
	<path class="st0" d="M50,51.93c-5,0-9.06,4.07-9.06,9.06S45,70.05,50,70.05s9.06-4.07,9.06-9.06S55,51.93,50,51.93z M55.29,62.71
		l-4.4,4.4c-0.5,0.5-1.3,0.5-1.79,0l-4.4-4.4c-0.75-0.75-1.18-1.79-1.18-2.86c0-2.23,1.81-4.04,4.04-4.04
		c0.88,0,1.73,0.29,2.43,0.82c0.7-0.52,1.56-0.82,2.43-0.82c2.23,0,4.04,1.81,4.04,4.04C56.47,60.92,56.04,61.95,55.29,62.71z"/>
	<path class="st0" d="M16.7,10.22L16.7,10.22h-4.23v4.27C14.81,14.46,16.7,12.57,16.7,10.22z"/>
	<path class="st0" d="M41.59,75.56c-0.26-0.15-0.5-0.34-0.73-0.53l-2.4,7.99l2.97-1.48c0.52-0.26,1.14-0.16,1.55,0.25l2.3,2.3
		l1.84-7.12c-0.41-0.26-0.81-0.55-1.15-0.92C44.51,76.51,42.94,76.34,41.59,75.56z"/>
	<path class="st0" d="M58.41,75.56c-1.35,0.78-2.92,0.94-4.38,0.49c-0.35,0.38-0.76,0.68-1.2,0.95l1.83,7.1l2.3-2.3
		c0.41-0.4,1.04-0.51,1.55-0.25l2.97,1.48l-2.39-7.96C58.88,75.25,58.66,75.42,58.41,75.56z"/>
	<path class="st0" d="M12.47,65v4.19h4.22C16.65,66.89,14.79,65.02,12.47,65z"/>
	<path class="st0" d="M80.56,10.22L80.56,10.22H19.39l0,0c0,3.82-3.1,6.94-6.92,6.96V62.3c3.79,0.03,6.87,3.1,6.91,6.89h15.94
		c-0.44-0.84-0.64-1.76-0.62-2.68H21.85c-0.74,0-1.34-0.6-1.34-1.34v-4.02H16.5c-0.74,0-1.34-0.6-1.34-1.34V19.6
		c0-0.74,0.6-1.34,1.34-1.34h4.02v-4.02c0-0.74,0.6-1.34,1.34-1.34h56.29c0.74,0,1.34,0.6,1.34,1.34v4.02h4.02
		c0.74,0,1.34,0.6,1.34,1.34v40.21c0,0.74-0.6,1.34-1.34,1.34h-4.02v4.02c0,0.74-0.6,1.34-1.34,1.34H65.29
		c0.03,0.92-0.18,1.84-0.62,2.68h15.9c0.04-3.81,3.14-6.9,6.96-6.9l0,0V17.19l0,0C83.69,17.19,80.56,14.06,80.56,10.22z"/>
	<path class="st0" d="M83.25,10.22L83.25,10.22c0,2.36,1.92,4.28,4.28,4.28l0,0v-4.28H83.25z"/>
	<path class="st0" d="M83.27,69.19h4.26v-4.2l0,0C85.19,64.99,83.3,66.87,83.27,69.19z"/>
	<path class="st0" d="M65.06,56.95c1.12,1.04,1.77,2.48,1.77,4.04c0,1.03-0.3,2-0.82,2.84H76.8v-4.02c0-0.74,0.6-1.34,1.34-1.34
		h4.02V20.95h-4.02c-0.74,0-1.34-0.6-1.34-1.34v-4.02H23.2v4.02c0,0.74-0.6,1.34-1.34,1.34h-4.02v37.53h4.02
		c0.74,0,1.34,0.6,1.34,1.34v4.02h10.79c-0.51-0.85-0.82-1.81-0.82-2.84c0-1.56,0.65-3,1.77-4.04c-0.45-1.46-0.29-3.03,0.49-4.38
		c0.78-1.35,2.06-2.28,3.55-2.61c0.34-1.49,1.26-2.77,2.61-3.55c1.35-0.78,2.92-0.94,4.38-0.49C47,44.8,48.44,44.16,50,44.16
		c1.56,0,3,0.65,4.04,1.77c1.46-0.46,3.03-0.29,4.38,0.49c1.35,0.78,2.28,2.06,2.61,3.55c1.49,0.34,2.77,1.26,3.55,2.61
		C65.35,53.92,65.52,55.5,65.06,56.95z M25.88,25.93h48.25c0.74,0,1.35,0.6,1.35,1.35c0,0.74-0.6,1.35-1.35,1.35H25.88
		c-0.74,0-1.35-0.6-1.35-1.35C24.53,26.53,25.13,25.93,25.88,25.93z M58.04,40.15H41.96c-0.74,0-1.35-0.6-1.35-1.35
		c0-0.74,0.6-1.35,1.35-1.35h16.08c0.74,0,1.35,0.6,1.35,1.35C59.39,39.55,58.78,40.15,58.04,40.15z M25.88,34.39
		c-0.74,0-1.35-0.6-1.35-1.35c0-0.74,0.6-1.35,1.35-1.35h48.25c0.74,0,1.35,0.6,1.35,1.35c0,0.74-0.6,1.35-1.35,1.35H25.88z"/>
</g>
<path class="st1" d="M8.78,90.46h81.73c1.7,0,1.7,2.2,0,2.2H8.78C6.91,92.66,6.91,90.46,8.78,90.46z"/>
</svg>
