<?xml version="1.0" encoding="utf-8"?>
<!-- Generator: Adobe Illustrator 23.0.3, SVG Export Plug-In . SVG Version: 6.00 Build 0)  -->
<svg version="1.1" id="Layer_1" xmlns="http://www.w3.org/2000/svg" xmlns:xlink="http://www.w3.org/1999/xlink" x="0px" y="0px"
	 viewBox="0 0 100 100" style="enable-background:new 0 0 100 100;" xml:space="preserve">
<style type="text/css">
	.st0{fill:none;}
	.st1{fill:#293562;}
	.st2{font-family:'MyriadPro-Regular';}
	.st3{font-size:8.1822px;}
	.st4{fill-rule:evenodd;clip-rule:evenodd;fill:#293562;}
</style>
<g>
	<path class="st0" d="M56.29,17.56H42.14v-1.45H29.11v56.66h40.2V16.11H56.29V17.56z M40.71,30.36h7.92v0.84h-7.92V30.36z
		 M40.71,42.65h7.92v0.84h-7.92V42.65z M35.68,55.79h-3.03v-3.03h3.03V55.79z M35.68,43.5h-3.03v-3.03h3.03V43.5z M35.68,31.2h-3.03
		v-3.03h3.03V31.2z M48.63,55.79h-7.92v-0.84h7.92V55.79z M63.2,53.6H40.71v-0.84H63.2V53.6z M63.2,41.31H40.71v-0.84H63.2V41.31z
		 M63.2,29.01H40.71v-0.84H63.2V29.01z"/>
</g>
<g>
	<path class="st1" d="M72.91,11.72H56.29v-2.3h-2.85c-0.46-2.82-2.74-5.04-4.22-5.04c-1.48,0-3.76,2.22-4.22,5.04h-2.85v2.3H25.52
		c-0.87,0-1.57,0.7-1.57,1.57v62.3c0,0.87,0.7,1.57,1.57,1.57h47.39c0.87,0,1.57-0.7,1.57-1.57v-62.3
		C74.48,12.42,73.78,11.72,72.91,11.72z M49.21,6.89c0.71,0,1.28,0.57,1.28,1.28c0,0.71-0.57,1.28-1.28,1.28
		c-0.71,0-1.28-0.57-1.28-1.28C47.94,7.46,48.51,6.89,49.21,6.89z M69.32,72.77h-40.2V16.11h13.03v1.45h14.15v-1.45h13.03V72.77z"/>
</g>
<g>
	<rect x="32.65" y="36.23" class="st1" width="3.03" height="3.03"/>
</g>
<g>
	<rect x="32.65" y="48.53" class="st1" width="3.03" height="3.03"/>
</g>
<g>
	<rect x="32.65" y="60.83" class="st1" width="3.03" height="3.03"/>
</g>
<g>
	<rect x="40.71" y="36.23" class="st1" width="22.49" height="0.84"/>
</g>
<g>
	<rect x="40.71" y="38.42" class="st1" width="7.92" height="0.84"/>
</g>
<g>
	<rect x="40.71" y="48.53" class="st1" width="22.49" height="0.84"/>
</g>
<g>
	<rect x="40.71" y="50.72" class="st1" width="7.92" height="0.84"/>
</g>
<g>
	<rect x="40.71" y="60.83" class="st1" width="22.49" height="0.84"/>
</g>
<g>
	<rect x="40.71" y="63.01" class="st1" width="7.92" height="0.84"/>
</g>
<text transform="matrix(1 0 0 1 36.0122 27.1575)" class="st1 st2 st3">Divorce</text>
<path class="st4" d="M9.69,82.78h81.73c1.7,0,1.7,2.2,0,2.2H9.69C7.82,84.98,7.82,82.78,9.69,82.78z"/>
</svg>
