<?xml version="1.0" encoding="utf-8"?>
<!-- Generator: Adobe Illustrator 23.0.3, SVG Export Plug-In . SVG Version: 6.00 Build 0)  -->
<svg version="1.1" id="Layer_1" xmlns="http://www.w3.org/2000/svg" xmlns:xlink="http://www.w3.org/1999/xlink" x="0px" y="0px"
	 viewBox="0 0 100 100" style="enable-background:new 0 0 100 100;" xml:space="preserve">
<style type="text/css">
	.st0{fill-rule:evenodd;clip-rule:evenodd;fill:#293562;}
	.st1{fill:#293562;}
</style>
<path class="st0" d="M9.2,84.87h81.73c1.7,0,1.7,2.2,0,2.2H9.2C7.33,87.07,7.33,84.87,9.2,84.87z"/>
<g>
	<path class="st1" d="M23.57,6.88v67.97h52.87V21.99l-15.1-15.1H23.57z M70.77,69.19H29.23V12.54h28.32v13.22h13.22V69.19z
		 M61.33,21.99v-7.1l7.1,7.1H61.33z"/>
	<rect x="51.89" y="59.75" class="st1" width="7.55" height="3.78"/>
	<rect x="40.56" y="33.31" class="st1" width="7.55" height="3.78"/>
	<rect x="40.56" y="59.75" class="st1" width="7.55" height="3.78"/>
	<rect x="51.89" y="33.31" class="st1" width="7.55" height="3.78"/>
	<rect x="48.11" y="37.09" class="st1" width="3.78" height="22.66"/>
</g>
</svg>
