<?xml version="1.0" encoding="utf-8"?>
<!-- Generator: Adobe Illustrator 23.0.3, SVG Export Plug-In . SVG Version: 6.00 Build 0)  -->
<svg version="1.1" id="Layer_1" xmlns="http://www.w3.org/2000/svg" xmlns:xlink="http://www.w3.org/1999/xlink" x="0px" y="0px"
	 viewBox="0 0 100 100" style="enable-background:new 0 0 100 100;" xml:space="preserve">
<style type="text/css">
	.st0{fill:#293462;}
	.st1{fill-rule:evenodd;clip-rule:evenodd;fill:#293462;}
</style>
<path class="st0" d="M77.16,19.22c5.75,5.75,7.67,14.82,3.41,21.23C70.33,55.94,53.64,68.99,50.72,70.83
	c-0.22,0.14-0.63,0.18-0.9,0.04c-2.56-1.25-14.9-8.88-24.6-24.46c-0.04-0.09-0.14-0.45,0-0.67c1.79-2.74,15.35-19.25,30.93-30.03
	C62.39,11.36,71.45,13.56,77.16,19.22L77.16,19.22z"/>
<path class="st0" d="M24.5,18.46c6.15-6.2,15.66-7.05,22.75-2.55c0.54,0.31,1.21,1.39,0.54,2.06c0,0-12.34,9.7-23.88,23.57
	c-1.17,1.39-1.66,0.14-1.93-0.31C17.46,34.12,18.31,24.61,24.5,18.46L24.5,18.46z"/>
<path class="st1" d="M12.54,80.57h74.28c1.55,0,1.55,1.97,0,1.97H12.54C10.83,82.54,10.83,80.57,12.54,80.57z"/>
</svg>
