<?xml version="1.0" encoding="utf-8"?>
<!-- Generator: Adobe Illustrator 23.0.3, SVG Export Plug-In . SVG Version: 6.00 Build 0)  -->
<svg version="1.1" id="Layer_1" xmlns="http://www.w3.org/2000/svg" xmlns:xlink="http://www.w3.org/1999/xlink" x="0px" y="0px"
	 viewBox="0 0 100 100" style="enable-background:new 0 0 100 100;" xml:space="preserve">
<style type="text/css">
	.st0{fill-rule:evenodd;clip-rule:evenodd;fill:#293562;}
</style>
<g>
	<path class="st0" d="M50.8,36.87c5.25,5.01,25.06,25.21,25.06,25.21V36.53l-3.78,0.01c-5.12-3.63-10.23-7.45-15.89-10.18
		c-5.5-2.64-6.99-1.5-11.18,2.59L35.08,39.8c-0.39,0.44-0.59,1.03-0.71,1.59c-0.35,1.61,0.67,3.19,2.29,3.55
		c1.45,0.31,3.06-0.07,4.41-0.61C45.31,42.66,47.78,39.98,50.8,36.87 M77.92,30v33.72h15.12V30H77.92z M23.75,63.72V30H8.63v33.72
		H23.75z M74.06,63.21c-7.72-7.78-15.29-15.83-23.2-23.37c-2.76,2.78-5.21,4.96-9.01,6.46c-1.86,0.73-3.82,1.1-5.63,0.71
		c-2.75-0.59-4.51-3.3-3.9-6.05c0.41-1.89,1.18-2.53,2.39-3.86l8.23-9.01L28.66,34.6H25.8v25.31h2.58l15.91,11.75
		c2.61,1.15,5.21,1.3,7.33-0.9c2.84,1.56,6.42,1,8.49-1.53c3.09,1.25,6.16-0.04,7.96-2.72C70.55,66.69,72.88,65.39,74.06,63.21z"/>
</g>
<path class="st0" d="M10.03,81.57h81.73c1.7,0,1.7,2.2,0,2.2H10.03C8.16,83.77,8.16,81.57,10.03,81.57z"/>
</svg>
