<?xml version="1.0" encoding="utf-8"?>
<!-- Generator: Adobe Illustrator 23.0.3, SVG Export Plug-In . SVG Version: 6.00 Build 0)  -->
<svg version="1.1" id="Layer_1" xmlns="http://www.w3.org/2000/svg" xmlns:xlink="http://www.w3.org/1999/xlink" x="0px" y="0px"
	 viewBox="0 0 100 100" style="enable-background:new 0 0 100 100;" xml:space="preserve">
<style type="text/css">
	.st0{fill-rule:evenodd;clip-rule:evenodd;fill:#293562;}
</style>
<g transform="translate(0,-952.36218)">
	<path class="st0" d="M25.23,958.33c-0.85,0.08-1.49,0.79-1.49,1.64v68.92c0,0.91,0.73,1.64,1.64,1.64h49.23
		c0.91,0,1.64-0.73,1.64-1.64v-54.43c0-0.05,0-0.1,0-0.15c-0.01-0.11-0.02-0.22-0.05-0.33c0-0.02,0-0.03,0-0.05
		c-0.01-0.03-0.02-0.07-0.03-0.1c-0.02-0.03-0.03-0.07-0.05-0.1c-0.01-0.02-0.02-0.03-0.03-0.05c-0.02-0.05-0.05-0.1-0.08-0.15
		c-0.01-0.02-0.02-0.03-0.03-0.05c-0.02-0.03-0.03-0.05-0.05-0.08c-0.03-0.04-0.07-0.09-0.1-0.13c-0.02-0.03-0.05-0.05-0.08-0.08
		c-0.02-0.01-0.03-0.02-0.05-0.03c-0.06-0.06-0.12-0.11-0.18-0.15c-0.05-0.05-0.1-0.09-0.15-0.13l-15.13-13.85
		c-0.02-0.03-0.05-0.05-0.08-0.08L60,958.76c-0.06-0.07-0.13-0.13-0.21-0.18c-0.05-0.03-0.1-0.05-0.15-0.08
		c-0.01-0.01-0.02-0.02-0.03-0.03c-0.04-0.02-0.08-0.04-0.13-0.05c-0.01,0-0.02,0-0.03,0c-0.04-0.02-0.08-0.04-0.13-0.05
		c-0.02,0-0.03,0-0.05,0c-0.03-0.01-0.07-0.02-0.1-0.03c-0.02,0-0.03,0-0.05,0c-0.03-0.01-0.07-0.02-0.1-0.03c-0.02,0-0.03,0-0.05,0
		c-0.03,0-0.05,0-0.08,0h-0.1H25.39C25.33,958.32,25.28,958.32,25.23,958.33L25.23,958.33z M60.54,963.69l9.85,9.02h-9.85V963.69z
		 M34.28,973.25c0.06,0,0.12,0,0.18,0h19.87c0.91-0.01,1.65,0.71,1.66,1.62c0.01,0.91-0.71,1.65-1.62,1.66c-0.02,0-0.03,0-0.05,0
		H34.46c-0.91,0.05-1.68-0.65-1.73-1.55C32.68,974.07,33.38,973.3,34.28,973.25z M34.41,979.66c0.05,0,0.1,0,0.15,0h19.87
		c0.91-0.01,1.65,0.71,1.66,1.62c0.01,0.91-0.71,1.65-1.62,1.66c-0.02,0-0.03,0-0.05,0H34.56c-0.91,0.04-1.68-0.66-1.72-1.56
		S33.5,979.7,34.41,979.66z M34.08,986.27c0.05,0,0.1,0,0.15,0h31.43c0.91-0.01,1.65,0.71,1.66,1.62s-0.71,1.65-1.62,1.66
		c-0.02,0-0.03,0-0.05,0H34.23c-0.91,0.04-1.68-0.66-1.72-1.56C32.47,987.08,33.17,986.32,34.08,986.27
		C34.08,986.27,34.08,986.27,34.08,986.27z M34.18,992.79c0.05,0,0.1,0,0.15,0h31.33c0.91-0.01,1.65,0.71,1.66,1.62
		c0.01,0.91-0.71,1.65-1.62,1.66c-0.02,0-0.03,0-0.05,0H34.33c-0.91,0.04-1.68-0.66-1.72-1.56
		C32.57,993.6,33.27,992.83,34.18,992.79z M34.28,999.3c0.06,0,0.12,0,0.18,0h31.07c0.91-0.01,1.65,0.71,1.66,1.62
		c0.01,0.91-0.71,1.65-1.62,1.66c-0.02,0-0.03,0-0.05,0H34.46c-0.91,0.05-1.68-0.65-1.73-1.55
		C32.68,1000.12,33.38,999.35,34.28,999.3z M34.41,1005.91c0.05,0,0.1,0,0.15,0h30.97c0.91-0.01,1.65,0.71,1.66,1.62
		s-0.71,1.65-1.62,1.66c-0.02,0-0.03,0-0.05,0H34.56c-0.91,0.04-1.68-0.66-1.72-1.56C32.8,1006.72,33.5,1005.96,34.41,1005.91
		C34.41,1005.91,34.41,1005.91,34.41,1005.91z M34.28,1012.35c0.06,0,0.12,0,0.18,0h31.07c0.91-0.01,1.65,0.71,1.66,1.62
		c0.01,0.91-0.71,1.65-1.62,1.66c-0.02,0-0.03,0-0.05,0H34.46c-0.91,0.05-1.68-0.65-1.73-1.55
		C32.68,1013.17,33.38,1012.4,34.28,1012.35z"/>
</g>
<path class="st0" d="M9.22,86.25h81.73c1.7,0,1.7,2.2,0,2.2H9.22C7.35,88.45,7.35,86.25,9.22,86.25z"/>
</svg>
