<?xml version="1.0" encoding="utf-8"?>
<!-- Generator: Adobe Illustrator 23.0.3, SVG Export Plug-In . SVG Version: 6.00 Build 0)  -->
<svg version="1.1" id="Layer_1" xmlns="http://www.w3.org/2000/svg" xmlns:xlink="http://www.w3.org/1999/xlink" x="0px" y="0px"
	 viewBox="0 0 100 100" style="enable-background:new 0 0 100 100;" xml:space="preserve">
<style type="text/css">
	.st0{fill:#293462;}
</style>
<path class="st0" d="M55.53,49.1c0.34-0.43,0.53-0.96,0.52-1.59l0-1.46c0-0.63-0.18-1.17-0.54-1.61c-0.36-0.44-0.87-0.66-1.53-0.66
	c-0.65,0-1.16,0.22-1.51,0.66c-0.36,0.44-0.54,0.97-0.53,1.6l0,1.47c0,0.63,0.18,1.16,0.54,1.59c0.36,0.42,0.87,0.63,1.55,0.63
	C54.68,49.73,55.18,49.52,55.53,49.1z"/>
<path class="st0" d="M51.73,19.83l-12.48,3.32c-1.14-1.49-2.38-2.96-3.81-4.39c-3.19-3.19-6.66-5.75-9.77-7.23
	c-4.86-2.3-7.38-1.28-8.63-0.02c-3.84,3.84,1.07,12.23,7.25,18.41c1.42,1.42,2.9,2.7,4.38,3.83l-3.32,12.46
	c-0.27,1,0.02,2.06,0.75,2.79l33.75,33.75c0.54,0.54,1.28,0.85,2.05,0.85c0.77,0,1.5-0.3,2.05-0.85l24.32-24.32
	c1.14-1.13,1.14-2.96,0-4.1L54.53,20.58C53.8,19.84,52.73,19.56,51.73,19.83z M20.11,14.59c0.91-0.61,6.17,1.14,12.26,7.24
	c0.82,0.82,1.6,1.67,2.32,2.52l-2.18,0.58c-1,0.27-1.79,1.05-2.06,2.06l-0.57,2.16c-0.82-0.7-1.66-1.45-2.52-2.31
	C21.25,20.74,19.52,15.48,20.11,14.59z M36.79,38.17c0.89,0.24,1.67,0.35,2.36,0.34c1.72,0,2.83-0.63,3.54-1.34
	c0.85-0.85,0.86-2.23,0.01-3.08c-0.85-0.85-2.22-0.85-3.08,0c-0.37,0.24-1.48,0.07-3.05-0.59c0.24-0.52,0.57-1.02,1-1.45
	c1.98-1.98,5.19-1.98,7.17,0c1.98,1.98,1.98,5.19,0,7.17c-1.98,1.98-5.19,1.98-7.17,0C37.25,38.89,37,38.54,36.79,38.17z
	 M47.81,47.51v-1.47c0-1.65,0.53-3.03,1.61-4.12c1.07-1.09,2.6-1.63,4.57-1.63c2,0,3.54,0.55,4.61,1.63
	c1.07,1.09,1.61,2.47,1.61,4.12v1.47c0,1.67-0.54,3.03-1.61,4.11c-1.08,1.08-2.6,1.62-4.58,1.62c-1.99,0-3.53-0.54-4.6-1.63
	C48.35,50.52,47.8,49.16,47.81,47.51z M73.45,61.72l0,1.47c0,1.67-0.53,3.04-1.6,4.12c-1.07,1.08-2.59,1.62-4.57,1.62
	c-1.99,0-3.53-0.54-4.62-1.62c-1.09-1.09-1.63-2.46-1.64-4.12l0-1.48c0-1.65,0.54-3.01,1.63-4.1c1.08-1.09,2.61-1.64,4.59-1.64
	c1.99,0,3.54,0.54,4.61,1.63C72.92,58.68,73.45,60.06,73.45,61.72z M55.04,66.46l-3.01-1.51l13.61-21.78l3.01,1.51L55.04,66.46z"/>
<path class="st0" d="M65.72,60.13c-0.35,0.43-0.53,0.97-0.53,1.59v1.46c0,0.61,0.2,1.14,0.61,1.58c0.41,0.44,0.9,0.67,1.49,0.67
	c0.79,0,1.33-0.2,1.61-0.59c0.28-0.39,0.42-0.94,0.42-1.65l0-1.46c0-0.62-0.18-1.16-0.55-1.59c-0.36-0.44-0.87-0.66-1.52-0.66
	C66.59,59.47,66.07,59.7,65.72,60.13z"/>
<g>
	<g>
		<path class="st0" d="M15.68,90.98c24.48,0,48.96,0,73.44,0c0.97,0,0.97-1.5,0-1.5c-24.48,0-48.96,0-73.44,0
			C14.72,89.48,14.72,90.98,15.68,90.98L15.68,90.98z"/>
	</g>
</g>
</svg>
