<?xml version="1.0" standalone="no"?>
<!DOCTYPE svg PUBLIC "-//W3C//DTD SVG 20010904//EN"
 "http://www.w3.org/TR/2001/REC-SVG-20010904/DTD/svg10.dtd">
<svg version="1.0" xmlns="http://www.w3.org/2000/svg"
 width="241.000000pt" height="241.000000pt" viewBox="0 0 241.000000 241.000000"
 preserveAspectRatio="xMidYMid meet">
<metadata>
Created by potrace 1.11, written by Peter Selinger 2001-2013
</metadata>
<g transform="translate(0.000000,241.000000) scale(0.100000,-0.100000)"
fill="#000000" stroke="none">
<path d="M1062 2305 c-4 -5 -7 -250 -7 -543 0 -417 2 -531 12 -528 11 4 70 43
301 194 28 18 52 41 53 50 0 20 0 630 0 752 l-1 85 -176 0 c-109 0 -178 -3
-182 -10z"/>
<path d="M1970 2188 c-30 -3 -98 -9 -150 -13 -52 -4 -97 -8 -99 -11 -3 -2 9
-32 25 -65 25 -54 27 -62 13 -72 -8 -7 -54 -43 -102 -81 l-87 -69 0 -120 c0
-94 3 -117 13 -110 6 5 76 62 155 126 l143 117 39 -25 c42 -26 60 -31 60 -15
0 5 13 31 28 57 84 143 140 260 132 273 -10 17 -78 20 -170 8z"/>
<path d="M2340 2027 c-68 -53 -1779 -1339 -1795 -1349 -12 -7 -24 0 -334 204
-107 70 -196 126 -198 124 -2 -2 14 -30 35 -62 21 -33 150 -233 286 -447 136
-213 252 -387 256 -387 5 0 15 9 23 20 7 11 47 55 88 98 41 43 117 125 169
182 52 57 102 110 110 119 9 9 67 72 130 141 63 68 124 134 135 145 11 12 63
68 115 125 52 56 111 120 131 141 32 34 209 226 234 253 6 6 64 70 130 141 66
71 125 135 130 141 6 6 60 64 120 130 181 195 219 236 235 254 8 9 26 29 39
43 34 38 25 34 -39 -16z"/>
<path d="M589 2030 l-24 -5 0 -563 c0 -437 3 -561 12 -558 17 7 325 206 342
221 11 10 13 96 13 454 1 243 -2 445 -6 448 -7 7 -302 10 -337 3z"/>
<path d="M71 1407 l0 -254 117 -63 c64 -35 145 -78 179 -96 33 -19 63 -34 66
-34 2 0 4 156 3 348 l-1 347 -182 3 -181 2 -1 -253z"/>
</g>
</svg>
