<?xml version="1.0" encoding="utf-8"?>
<!-- Generator: Adobe Illustrator 23.0.3, SVG Export Plug-In . SVG Version: 6.00 Build 0)  -->
<svg version="1.1" id="Layer_1" xmlns="http://www.w3.org/2000/svg" xmlns:xlink="http://www.w3.org/1999/xlink" x="0px" y="0px"
	 viewBox="0 0 100 100" style="enable-background:new 0 0 100 100;" xml:space="preserve">
<style type="text/css">
	.st0{fill:#293562;}
	.st1{fill-rule:evenodd;clip-rule:evenodd;fill:#293562;}
</style>
<g transform="translate(0,-1020.3622)">
	<path class="st0" d="M21.64,1029.64h56.6l8.19,21.65v1.02c0,1.42-1.1,2.52-2.52,2.52c-1.06,0-1.91-0.59-2.28-1.5
		c-0.13-0.3-0.24-0.67-0.24-1.02v-0.08c0-0.03,0-0.05,0-0.08c0-0.03,0-0.05,0-0.08c0-0.05,0-0.1,0-0.16
		c-0.02-0.03-0.05-0.05-0.08-0.08c0-0.05,0-0.11,0-0.16c-0.02-0.03-0.05-0.05-0.08-0.08c-0.1-0.16-0.24-0.29-0.39-0.39
		c-0.03,0-0.05,0-0.08,0c-0.05-0.03-0.1-0.06-0.16-0.08c-0.39-0.15-0.85-0.08-1.18,0.16c-0.03,0.02-0.05,0.05-0.08,0.08
		c-0.03,0.03-0.05,0.05-0.08,0.08c-0.06,0.05-0.11,0.1-0.16,0.16c-0.03,0.05-0.06,0.1-0.08,0.16c-0.03,0.02-0.05,0.05-0.08,0.08
		c0,0.05,0,0.1,0,0.16c0,0.03,0,0.05,0,0.08c-0.03,0.05-0.06,0.1-0.08,0.16v0.08c0,1.06-0.59,1.99-1.5,2.36
		c-0.3,0.13-0.67,0.16-1.02,0.16c-1.06,0-1.91-0.59-2.28-1.5c-0.13-0.3-0.24-0.67-0.24-1.02c0-0.05,0-0.1,0-0.16
		c0-0.03,0-0.05,0-0.08c0-0.05,0-0.1,0-0.16c-0.02-0.03-0.05-0.05-0.08-0.08c0-0.05,0-0.11,0-0.16c-0.02-0.03-0.05-0.05-0.08-0.08
		c-0.1-0.16-0.24-0.29-0.39-0.39c-0.03,0-0.05,0-0.08,0c-0.05-0.03-0.1-0.06-0.16-0.08c-0.15-0.06-0.31-0.08-0.47-0.08
		c-0.25,0.01-0.5,0.09-0.71,0.24c-0.03,0.02-0.05,0.05-0.08,0.08c-0.03,0.03-0.05,0.05-0.08,0.08c-0.06,0.05-0.11,0.1-0.16,0.16
		c-0.03,0.05-0.06,0.1-0.08,0.16c-0.03,0.02-0.05,0.05-0.08,0.08c0,0.05,0,0.1,0,0.16c0,0.03,0,0.05,0,0.08
		c-0.03,0.05-0.06,0.1-0.08,0.16c0,0.03,0,0.05,0,0.08c0,1.06-0.59,1.99-1.5,2.36c-0.3,0.13-0.67,0.16-1.02,0.16
		c-1.06,0-1.91-0.59-2.28-1.5c-0.13-0.3-0.24-0.67-0.24-1.02c0-0.05,0-0.1,0-0.16c0-0.03,0-0.05,0-0.08c0-0.05,0-0.1,0-0.16
		c-0.02-0.03-0.05-0.05-0.08-0.08c0-0.05,0-0.11,0-0.16c-0.02-0.03-0.05-0.05-0.08-0.08c-0.1-0.16-0.24-0.29-0.39-0.39
		c-0.03,0-0.05,0-0.08,0c-0.05-0.03-0.1-0.06-0.16-0.08c-0.15-0.06-0.31-0.08-0.47-0.08c-0.25,0.01-0.5,0.09-0.71,0.24
		c-0.03,0.02-0.05,0.05-0.08,0.08c-0.03,0.03-0.05,0.05-0.08,0.08c-0.06,0.05-0.11,0.1-0.16,0.16c-0.03,0.05-0.06,0.1-0.08,0.16
		c-0.03,0.02-0.05,0.05-0.08,0.08c0,0.05,0,0.1,0,0.16c0,0.03,0,0.05,0,0.08c-0.03,0.05-0.06,0.1-0.08,0.16c0,0.03,0,0.05,0,0.08
		c0,1.06-0.59,1.99-1.5,2.36c-0.3,0.13-0.67,0.16-1.02,0.16c-1.06,0-1.91-0.59-2.28-1.5c-0.13-0.3-0.24-0.67-0.24-1.02
		c0-0.05,0-0.1,0-0.16c0-0.03,0-0.05,0-0.08c0-0.05,0-0.1,0-0.16c-0.02-0.03-0.05-0.05-0.08-0.08c0-0.05,0-0.11,0-0.16
		c-0.02-0.03-0.05-0.05-0.08-0.08c-0.1-0.16-0.24-0.29-0.39-0.39c-0.03,0-0.05,0-0.08,0c-0.05-0.03-0.1-0.06-0.16-0.08
		c-0.15-0.06-0.31-0.08-0.47-0.08c-0.25,0.01-0.5,0.09-0.71,0.24c-0.03,0.02-0.05,0.05-0.08,0.08c-0.03,0.03-0.05,0.05-0.08,0.08
		c-0.06,0.05-0.11,0.1-0.16,0.16c-0.03,0.05-0.06,0.1-0.08,0.16c-0.03,0.02-0.05,0.05-0.08,0.08c0,0.05,0,0.1,0,0.16
		c0,0.03,0,0.05,0,0.08c-0.03,0.05-0.06,0.1-0.08,0.16c0,0.03,0,0.05,0,0.08c0,1.06-0.59,1.99-1.5,2.36
		c-0.08,0.02-0.16,0.04-0.24,0.08c-0.24,0.07-0.52,0.08-0.79,0.08c-1.06,0-1.91-0.59-2.28-1.5c-0.13-0.3-0.24-0.67-0.24-1.02
		c0-0.05,0-0.1,0-0.16c0-0.03,0-0.05,0-0.08c0-0.05,0-0.1,0-0.16c-0.02-0.03-0.05-0.05-0.08-0.08c0-0.05,0-0.11,0-0.16
		c-0.02-0.03-0.05-0.05-0.08-0.08c-0.1-0.16-0.24-0.29-0.39-0.39c-0.03,0-0.05,0-0.08,0c-0.05-0.03-0.1-0.06-0.16-0.08
		c-0.15-0.06-0.31-0.08-0.47-0.08c-0.25,0.01-0.5,0.09-0.71,0.24c-0.03,0.02-0.05,0.05-0.08,0.08c-0.03,0.03-0.05,0.05-0.08,0.08
		c-0.06,0.05-0.11,0.1-0.16,0.16c-0.03,0.05-0.06,0.1-0.08,0.16c-0.03,0.02-0.05,0.05-0.08,0.08c0,0.05,0,0.1,0,0.16
		c0,0.03,0,0.05,0,0.08c-0.03,0.05-0.06,0.1-0.08,0.16c0,0.03,0,0.05,0,0.08c0,1.06-0.59,1.99-1.5,2.36
		c-0.3,0.13-0.67,0.16-1.02,0.16c-1.06,0-1.91-0.59-2.28-1.5c-0.13-0.3-0.24-0.67-0.24-1.02c0-0.05,0-0.1,0-0.16
		c0-0.03,0-0.05,0-0.08c0-0.05,0-0.1,0-0.16c-0.02-0.03-0.05-0.05-0.08-0.08c0-0.05,0-0.11,0-0.16c-0.02-0.03-0.05-0.05-0.08-0.08
		c-0.1-0.16-0.24-0.29-0.39-0.39c-0.03,0-0.05,0-0.08,0c-0.05-0.03-0.1-0.06-0.16-0.08c-0.15-0.06-0.31-0.08-0.47-0.08
		c-0.25,0.01-0.5,0.09-0.71,0.24c-0.03,0.02-0.05,0.05-0.08,0.08c-0.03,0.03-0.05,0.05-0.08,0.08c-0.06,0.05-0.11,0.1-0.16,0.16
		c-0.03,0.05-0.06,0.1-0.08,0.16c-0.03,0.02-0.05,0.05-0.08,0.08c0,0.05,0,0.1,0,0.16c0,0.03,0,0.05,0,0.08
		c-0.03,0.05-0.06,0.1-0.08,0.16c0,0.03,0,0.05,0,0.08c0,1.06-0.59,1.99-1.5,2.36c-0.3,0.13-0.67,0.16-1.02,0.16
		c-1.06,0-1.91-0.59-2.28-1.5c-0.13-0.3-0.24-0.67-0.24-1.02c0-0.05,0-0.1,0-0.16c0-0.03,0-0.05,0-0.08c0-0.05,0-0.1,0-0.16
		c-0.02-0.03-0.05-0.05-0.08-0.08c0-0.05,0-0.11,0-0.16c-0.02-0.03-0.05-0.05-0.08-0.08c-0.1-0.16-0.24-0.29-0.39-0.39
		c-0.03,0-0.05,0-0.08,0c-0.05-0.03-0.1-0.06-0.16-0.08c-0.15-0.06-0.31-0.08-0.47-0.08c-0.25,0.01-0.5,0.09-0.71,0.24
		c-0.03,0.02-0.05,0.05-0.08,0.08c-0.03,0.03-0.05,0.05-0.08,0.08c-0.06,0.05-0.11,0.1-0.16,0.16c-0.03,0.05-0.06,0.1-0.08,0.16
		c-0.03,0.02-0.05,0.05-0.08,0.08c0,0.05,0,0.1,0,0.16c0,0.03,0,0.05,0,0.08c-0.03,0.05-0.06,0.1-0.08,0.16c0,0.03,0,0.05,0,0.08
		c0,1.06-0.59,1.99-1.5,2.36c-0.3,0.13-0.67,0.16-1.02,0.16c-1.06,0-1.91-0.59-2.28-1.5c-0.13-0.3-0.24-0.67-0.24-1.02
		c0-0.05,0-0.1,0-0.16c0-0.03,0-0.05,0-0.08c0-0.05,0-0.1,0-0.16c-0.03-0.03-0.05-0.05-0.08-0.08c0-0.05,0-0.11,0-0.16
		c-0.03-0.03-0.05-0.05-0.08-0.08c-0.1-0.16-0.24-0.29-0.39-0.39c-0.03,0-0.05,0-0.08,0c-0.05-0.03-0.1-0.06-0.16-0.08
		c-0.15-0.06-0.31-0.08-0.47-0.08c-0.25,0.01-0.5,0.09-0.71,0.24c-0.03,0.02-0.05,0.05-0.08,0.08c-0.03,0.03-0.05,0.05-0.08,0.08
		c-0.06,0.05-0.11,0.1-0.16,0.16c-0.03,0.05-0.06,0.1-0.08,0.16c-0.03,0.02-0.05,0.05-0.08,0.08c0,0.05,0,0.1,0,0.16
		c0,0.03,0,0.05,0,0.08c-0.03,0.05-0.06,0.1-0.08,0.16c0,0.03,0,0.05,0,0.08c0,1.06-0.59,1.99-1.5,2.36
		c-0.3,0.13-0.67,0.16-1.02,0.16c-1.06,0-1.91-0.59-2.28-1.5c-0.13-0.3-0.24-0.67-0.24-1.02v-0.08c0-0.03,0-0.05,0-0.08
		c0-0.03,0-0.05,0-0.08c-0.03-0.26-0.14-0.51-0.31-0.71c-0.03,0-0.05,0-0.08,0c0-0.03,0-0.05,0-0.08c-0.03,0-0.05,0-0.08,0
		c-0.12-0.1-0.25-0.18-0.39-0.24c-0.05,0-0.11,0-0.16,0c-0.08-0.03-0.16-0.06-0.24-0.08c-0.4,0.01-0.8,0.22-1.02,0.55
		c0,0.03,0,0.05,0,0.08c-0.03,0.02-0.05,0.05-0.08,0.08c-0.03,0.05-0.06,0.1-0.08,0.16c0,0.03,0,0.05,0,0.08c0,0.03,0,0.05,0,0.08
		c-0.03,0.05-0.06,0.1-0.08,0.16c0,0.03,0,0.05,0,0.08c0,0.03,0,0.05,0,0.08c0,1.06-0.59,1.99-1.5,2.36
		c-0.3,0.13-0.67,0.16-1.02,0.16c-1.06,0-1.91-0.59-2.28-1.5c-0.13-0.3-0.24-0.67-0.24-1.02v-1.02L21.64,1029.64z M27.23,1055.61
		c0.07,0.09,0.16,0.16,0.24,0.24c0.91,0.91,2.16,1.5,3.54,1.5c1.49,0,2.85-0.69,3.78-1.73c0.07,0.09,0.16,0.16,0.24,0.24
		c0.91,0.91,2.16,1.5,3.54,1.5c1.49,0,2.85-0.69,3.78-1.73c0.07,0.09,0.16,0.16,0.24,0.24c0.91,0.91,2.16,1.5,3.54,1.5
		c1.49,0,2.85-0.69,3.78-1.73c0.07,0.09,0.16,0.16,0.24,0.24c0.91,0.91,2.16,1.5,3.54,1.5c0.03,0,0.05,0,0.08,0v35.27H20.93v-35.98
		c0.76,0.45,1.58,0.71,2.52,0.71C24.94,1057.35,26.3,1056.66,27.23,1055.61z M57.45,1055.61c0.07,0.09,0.16,0.16,0.24,0.24
		c0.91,0.91,2.16,1.5,3.54,1.5c1.49,0,2.85-0.69,3.78-1.73c0.07,0.09,0.16,0.16,0.24,0.24c0.91,0.91,2.16,1.5,3.54,1.5
		c1.49,0,2.85-0.69,3.78-1.73c0.07,0.09,0.16,0.16,0.24,0.24c0.91,0.91,2.16,1.5,3.54,1.5c0.92,0,1.78-0.28,2.52-0.71v37.16
		c0,0.03,0,0.05,0,0.08v1.26h-2.52v-25.27l-1.26,0.08H59.97c-0.7,0-1.26,0.56-1.26,1.26v23.93h-2.44v-38.49
		C56.72,1056.37,57.11,1056,57.45,1055.61z M29.9,1061.83l-5.04,10.08l2.28,1.1l5.04-10.08L29.9,1061.83z M34.94,1066.87l-6.3,12.6
		l2.28,1.1l6.3-12.6L34.94,1066.87z M61.23,1072.46h12.6v22.67h-12.6V1072.46z M63.75,1080.02v5.04h2.52v-5.04H63.75z
		 M13.37,1095.13h40.31v5.04H13.37v-3.94V1095.13z M81.39,1095.13h5.04v5.04h-5.04v-3.46c0.01-0.1,0.01-0.21,0-0.31V1095.13z
		 M56.27,1097.65h22.59v2.52H56.27V1097.65z"/>
</g>
<path class="st1" d="M9.09,87.05h81.73c1.7,0,1.7,2.2,0,2.2H9.09C7.23,89.25,7.23,87.05,9.09,87.05z"/>
</svg>
