<?xml version="1.0" encoding="utf-8"?>
<!-- Generator: Adobe Illustrator 23.0.3, SVG Export Plug-In . SVG Version: 6.00 Build 0)  -->
<svg version="1.1" id="Layer_1" xmlns="http://www.w3.org/2000/svg" xmlns:xlink="http://www.w3.org/1999/xlink" x="0px" y="0px"
	 viewBox="0 0 100 100" style="enable-background:new 0 0 100 100;" xml:space="preserve">
<style type="text/css">
	.st0{fill:#293562;}
	.st1{fill-rule:evenodd;clip-rule:evenodd;fill:#293562;}
</style>
<path class="st0" d="M63.46,33.1c-1.43,5.04-2.72,5.32-3.5,4.79c-0.97,5.43-3.89,12.43-13.3,12.79c-9.57-0.73-12.6-7.9-13.45-13.41
	c-0.77-0.06-1.78-1.14-2.86-4.98c-1.49-5.25,0.09-6.03,1.43-5.9c-0.98-2.76-1-5.47-0.34-7.98c0.69-2.96,2.29-5.32,4.08-7.15
	c1.13-1.2,2.41-2.26,3.77-3.12c1.11-0.77,2.33-1.43,3.67-1.88l0,0l0,0C44,5.9,45.11,5.67,46.29,5.62c3.64-0.31,6.39,0.6,8.37,1.77
	c2.95,1.63,4.08,3.79,4.08,3.79s7.44,0.52,4.18,16.11l0,0C63.92,27.63,64.62,29.01,63.46,33.1z M85.06,66.91
	c0,5-4.06,9.06-9.06,9.06c-5,0-9.06-4.06-9.06-9.06c0-5,4.06-9.06,9.06-9.06C81,57.85,85.06,61.91,85.06,66.91z M77.67,66.36
	C77.2,66.1,76.7,65.9,76.2,65.7c-0.29-0.12-0.56-0.26-0.81-0.45c-0.48-0.38-0.39-1,0.17-1.25c0.16-0.07,0.32-0.09,0.49-0.1
	c0.65-0.04,1.27,0.08,1.86,0.37c0.29,0.14,0.39,0.1,0.49-0.21c0.1-0.32,0.19-0.65,0.29-0.98c0.06-0.22-0.01-0.36-0.22-0.46
	c-0.38-0.17-0.76-0.29-1.17-0.35c-0.53-0.08-0.53-0.09-0.53-0.62c0-0.75,0-0.75-0.76-0.75c-0.11,0-0.22,0-0.33,0
	c-0.35,0.01-0.41,0.07-0.42,0.43c0,0.16,0,0.32,0,0.48c0,0.47-0.01,0.47-0.46,0.63c-1.09,0.4-1.77,1.14-1.84,2.33
	c-0.06,1.05,0.49,1.77,1.35,2.29c0.53,0.32,1.12,0.51,1.69,0.76c0.22,0.1,0.43,0.21,0.62,0.36c0.54,0.45,0.44,1.2-0.2,1.48
	c-0.35,0.15-0.71,0.19-1.08,0.14c-0.58-0.07-1.13-0.22-1.65-0.5c-0.3-0.16-0.39-0.12-0.5,0.21c-0.09,0.29-0.17,0.57-0.25,0.86
	c-0.11,0.39-0.07,0.48,0.3,0.66c0.47,0.23,0.97,0.35,1.49,0.43c0.4,0.06,0.41,0.08,0.42,0.5c0,0.19,0,0.38,0.01,0.57
	c0,0.24,0.12,0.38,0.36,0.38c0.28,0.01,0.56,0.01,0.84,0c0.23-0.01,0.35-0.13,0.35-0.36c0-0.26,0.01-0.52,0-0.78
	c-0.01-0.26,0.1-0.4,0.36-0.47c0.58-0.16,1.08-0.47,1.46-0.94C79.58,69.09,79.17,67.2,77.67,66.36z M70.32,77.67
	c-0.92-0.49-1.79-1.1-2.59-1.84c-4.93-4.57-5.22-12.26-0.65-17.19c1.57-1.69,3.5-2.83,5.57-3.42c-7.85-2.1-14.16-6.54-14.16-6.54
	l-5.11,16.15l0,0l-0.96,3.04l-0.02-0.04l-0.84,2.58l-2.69-7.64c6.81-9.5-1.8-9.13-1.8-9.13s-8.61-0.37-1.8,9.13l-2.72,7.7l-0.83-2.6
	l-6.07-19.19c0,0-6.55,4.61-14.6,6.66c-6.01,1.53-6.3,8.47-6.05,11.9l-0.03-0.01c0,0-0.07,4.77,0.7,6.7c0,0,11.73,7.62,31.38,7.62
	l-0.01-0.44l0.04,0.44C57.02,81.55,64.93,79.6,70.32,77.67z"/>
<path class="st1" d="M9.2,89.49h81.73c1.7,0,1.7,2.2,0,2.2H9.2C7.33,91.69,7.33,89.49,9.2,89.49z"/>
</svg>
