<?xml version="1.0" encoding="utf-8"?>
<!-- Generator: Adobe Illustrator 23.0.3, SVG Export Plug-In . SVG Version: 6.00 Build 0)  -->
<svg version="1.1" id="Layer_1" xmlns="http://www.w3.org/2000/svg" xmlns:xlink="http://www.w3.org/1999/xlink" x="0px" y="0px"
	 viewBox="0 0 100 100" style="enable-background:new 0 0 100 100;" xml:space="preserve">
<style type="text/css">
	.st0{fill:#293462;}
</style>
<path class="st0" d="M90.09,76.42c-7.37-7.15-16.36-12.2-26.03-14.61c-0.24-0.14-0.52-0.2-0.8-0.2h-0.88c-0.02,0-0.05,0-0.07,0.01
	l3.97,8.61L58,85.31h30.92c0.93,0,1.68-0.75,1.68-1.68v-6C90.6,77.17,90.42,76.74,90.09,76.42z"/>
<path class="st0" d="M38.91,61.61c-0.03,0-0.06-0.01-0.1-0.01h-0.64c-0.13,0-0.26,0.01-0.39,0.04C27.87,64,18.64,69.11,11.11,76.42
	c-0.33,0.32-0.51,0.75-0.51,1.21v6c0,0.93,0.75,1.68,1.68,1.68h30.71l-8.13-14.9L38.91,61.61z"/>
<path class="st0" d="M50.06,47.45c-0.94,0-1.76,0.53-2.18,1.31c-9.89-1.02-13.04-9.61-13.04-9.61c0.01,0.17,0.01,0.17,0,0
	c-0.02,0-0.03,0-0.05,0c-1.71,0-3.09-1.47-3.09-3.27c0-1.34,0.75-2.48,1.83-2.99c0,0,4.68-9.25,6.99-20.1c0,0,2.18,17.04,27.18,20
	c-0.01,0.03-0.02,0.07-0.03,0.1c1.08,0.51,1.83,1.66,1.83,2.99c0,1.81-1.38,3.27-3.09,3.27c-0.02,0-0.04,0-0.05,0
	c-0.36,4.84-2.66,9.69-6.07,13.01v4.14c12.05-0.55,20.27-6.04,20.27-6.04C69.2,43.33,78.95,20.01,66.43,9.1
	C53.91-1.81,50.6,5.26,50.6,5.26S47.29-1.81,34.77,9.1C22.26,20.01,32,43.33,20.65,50.27c0,0,8.16,5.44,20.14,6.03v-4.28
	c-1.85-1.84-3.35-4.13-4.39-6.62c2.24,2.44,5.84,4.94,11.38,5.49c0.37,0.9,1.26,1.53,2.3,1.53c1.37,0,2.49-1.11,2.49-2.49
	C52.55,48.56,51.44,47.45,50.06,47.45z"/>
<g>
	<g>
		<path class="st0" d="M10.6,92.09c26.67,0.15,53.34,0.3,80,0.45c0.97,0.01,0.97-1.49,0-1.5c-26.67-0.15-53.34-0.3-80-0.45
			C9.64,90.58,9.63,92.08,10.6,92.09L10.6,92.09z"/>
	</g>
</g>
</svg>
