<?xml version="1.0" encoding="utf-8"?>
<!-- Generator: Adobe Illustrator 23.0.3, SVG Export Plug-In . SVG Version: 6.00 Build 0)  -->
<svg version="1.1" id="Layer_1" xmlns="http://www.w3.org/2000/svg" xmlns:xlink="http://www.w3.org/1999/xlink" x="0px" y="0px"
	 viewBox="0 0 100 100" style="enable-background:new 0 0 100 100;" xml:space="preserve">
<style type="text/css">
	.st0{fill:#293562;}
	.st1{fill-rule:evenodd;clip-rule:evenodd;fill:#293562;}
</style>
<g>
	<path class="st0" d="M46.07,50.04c0,0-0.01,0.01-0.01,0.01C46.07,50.05,46.07,50.04,46.07,50.04z"/>
	<path class="st0" d="M52.38,64.1c-0.99-0.81-2.35-0.66-3.09,0.3c0,0,0,0,0,0l-2.82,3.65c-0.78,0.99-0.56,2.29,0.32,3.01
		c0.92,0.74,2.27,0.59,3.01-0.33c-0.07,0.09,2.74-3.41,2.9-3.61C53.44,66.19,53.29,64.84,52.38,64.1z"/>
	<path class="st0" d="M46.18,49.89c-0.03,0.04-0.07,0.09-0.11,0.15C46.11,49.99,46.15,49.94,46.18,49.89z"/>
	<path class="st0" d="M47.69,59.92c-0.98-0.76-2.47-0.63-3.28,0.42l-2.84,3.66c-0.79,1.02-0.61,2.5,0.4,3.29
		c1.04,0.81,2.5,0.6,3.29-0.4l2.84-3.66C48.91,62.16,48.69,60.7,47.69,59.92z"/>
	<path class="st0" d="M56.28,68.23c-0.77-0.58-1.93-0.44-2.54,0.32l-2.15,2.66c-0.32,0.4-0.46,0.9-0.39,1.41
		c0.06,0.5,0.32,0.94,0.73,1.24l0.15,0.13c0.77,0.57,1.93,0.4,2.53-0.42l2.04-2.73l0.01-0.01c0.01-0.02,0.02-0.03,0.03-0.05
		c0.01-0.01,0.01-0.02,0.02-0.03C57.23,69.98,57.1,68.84,56.28,68.23z"/>
	<polygon class="st0" points="24.12,8.55 13.23,19.94 24.12,19.94 	"/>
	<path class="st0" d="M57.09,76.46l0.12,0.08c0.87,0.57,2.07,0.32,2.65-0.58c-0.05,0.08,0.96-1.49,1.01-1.57
		c0.55-0.84,0.36-2.07-0.57-2.67c-0.67-0.43-1.64-0.41-2.29,0.17c-0.16,0.19-0.84,1.06-1.43,1.85
		C55.93,74.63,56.17,75.86,57.09,76.46z"/>
	<path class="st0" d="M61.36,76.69l-0.11,0.17c-1.1,1.69-3.33,2.14-4.96,1.06l-0.12-0.08c-0.79-0.51-1.32-1.3-1.53-2.22
		c-2.14,1.02-3.67-0.44-3.76-0.47c-0.71-0.52-1.19-1.34-1.32-2.27c-1.41,0.57-2.81,0.27-3.82-0.54c-0.89-0.72-1.44-1.8-1.42-3.03
		c-1.33,0.31-2.48-0.02-3.38-0.72c-1.73-1.35-2.05-3.87-0.7-5.62l1.46-1.88v-2.34c0-0.41-0.19-0.78-0.5-1.01l-0.52-0.39
		c-0.71,0.95-2.02,1.09-2.92,0.39L33.8,54.6c-0.87-0.71-1.03-1.95-0.37-2.83l9.59-13.03c0.33-0.44,0.83-0.74,1.38-0.81
		c0.56-0.07,1.11,0.08,1.54,0.42l3.99,3.15c0.72,0.56,0.95,1.51,0.64,2.33l0.43,0.37c0.17,0.15,0.38,0.23,0.61,0.23h5.24l0.68-0.65
		c1.21-1.17,2.93-1.73,4.61-1.48l4.25,0.63V9.82c0-1.38-1.12-2.5-2.5-2.5H25.79v13.46c0,0.46-0.37,0.83-0.83,0.83H12.12v56.92
		c0,1.38,1.12,2.5,2.5,2.5h49.25c1.38,0,2.5-1.12,2.5-2.5v-2.54c-0.09,0.11-0.16,0.23-0.26,0.33
		C64.85,77.57,62.83,77.76,61.36,76.69z M61.5,40.45h-9.11c-0.46,0-0.83-0.37-0.83-0.83s0.37-0.83,0.83-0.83h9.11
		c0.46,0,0.83,0.37,0.83,0.83S61.96,40.45,61.5,40.45z M61.5,31.35h-8.38c-0.46,0-0.83-0.37-0.83-0.83s0.37-0.83,0.83-0.83h8.38
		c0.46,0,0.83,0.37,0.83,0.83S61.96,31.35,61.5,31.35z M31.63,11.49H61.5c0.46,0,0.83,0.37,0.83,0.83c0,0.46-0.37,0.83-0.83,0.83
		H31.63c-0.46,0-0.83-0.37-0.83-0.83C30.8,11.86,31.17,11.49,31.63,11.49z M31.63,20.59H61.5c0.46,0,0.83,0.37,0.83,0.83
		c0,0.46-0.37,0.83-0.83,0.83H31.63c-0.46,0-0.83-0.37-0.83-0.83S31.17,20.59,31.63,20.59z M16.99,29.69h29.09
		c0.46,0,0.83,0.37,0.83,0.83s-0.37,0.83-0.83,0.83H16.99c-0.46,0-0.83-0.37-0.83-0.83S16.53,29.69,16.99,29.69z M16.99,38.79h21.47
		c0.46,0,0.83,0.37,0.83,0.83c0,0.46-0.37,0.83-0.83,0.83H16.99c-0.46,0-0.83-0.37-0.83-0.83C16.15,39.16,16.53,38.79,16.99,38.79z
		 M16.99,47.89h7.49c0.46,0,0.83,0.37,0.83,0.83c0,0.46-0.37,0.83-0.83,0.83h-7.49c-0.46,0-0.83-0.37-0.83-0.83
		S16.53,47.89,16.99,47.89z M16.99,56.99h12.9c0.46,0,0.83,0.37,0.83,0.83c0,0.46-0.37,0.83-0.83,0.83h-12.9
		c-0.46,0-0.83-0.37-0.83-0.83C16.15,57.36,16.53,56.99,16.99,56.99z M16.99,66.09H38.1c0.46,0,0.83,0.37,0.83,0.83
		c0,0.46-0.37,0.83-0.83,0.83H16.99c-0.46,0-0.83-0.37-0.83-0.83C16.15,66.46,16.53,66.09,16.99,66.09z M44.22,76.85H16.99
		c-0.46,0-0.83-0.37-0.83-0.83c0-0.46,0.37-0.83,0.83-0.83h27.23c0.46,0,0.83,0.37,0.83,0.83C45.05,76.48,44.67,76.85,44.22,76.85z"
		/>
	<path class="st0" d="M46.06,50.05c-0.05,0.06-0.1,0.14-0.16,0.21C45.96,50.19,46.01,50.12,46.06,50.05z"/>
	<path class="st0" d="M44.67,39.56c-0.02,0-0.04,0-0.05,0c-0.06,0.01-0.18,0.04-0.26,0.15l-9.59,13.03
		c-0.13,0.17-0.09,0.41,0.07,0.54l3.96,3.13c0.18,0.14,0.43,0.1,0.56-0.07c0.58-0.79,8.68-11.8,9.62-13.04
		c0.1-0.15,0.08-0.39-0.08-0.51l-3.99-3.15C44.82,39.58,44.73,39.56,44.67,39.56z"/>
	<path class="st0" d="M80.8,58.46c0,0.01,0,0.01,0.01,0.02C80.81,58.47,80.81,58.47,80.8,58.46z"/>
	<path class="st0" d="M80.85,58.58c0,0.01,0.01,0.01,0.01,0.02C80.86,58.6,80.86,58.59,80.85,58.58z"/>
	<path class="st0" d="M80.84,58.56c-0.01-0.03-0.02-0.06-0.03-0.08c0,0,0,0.01,0.01,0.01c0-0.01-0.01-0.03-0.02-0.04c0,0,0,0,0,0.01
		c-0.01-0.02-0.01-0.04-0.02-0.05c0,0,0,0,0,0c0,0,0,0,0,0c0-0.01-0.01-0.02-0.01-0.02c-0.31-0.76-1.54-3.79-5.74-14.14
		c-0.71,0.31-1.77,1.35-3.65,1.09l-9.5-1.4c-1.17-0.17-2.37,0.22-3.22,1.03l-0.91,0.88c0,0,0,0,0,0l-3.48,3.33
		c-0.23,0.22-0.28,0.48-0.28,0.66c0,0.28,0.14,0.65,0.52,0.83c1.72,0.82,3.75,0.78,5.43-0.11l0.92-0.48
		c1.42-0.75,3.16-0.58,4.42,0.43l0.46,0.36l8.49,6.8c1.33,1.04,2.92,1.45,4.47,1.24l2.17-0.3c-0.01-0.02-0.01-0.03-0.02-0.04
		c0,0,0,0.01,0,0.01C80.85,58.58,80.85,58.57,80.84,58.56z"/>
	<path class="st0" d="M80.86,58.6C80.87,58.62,80.87,58.62,80.86,58.6L80.86,58.6z"/>
	<path class="st0" d="M45.91,50.26c0,0.01-0.01,0.01-0.01,0.02C45.9,50.28,45.9,50.27,45.91,50.26z"/>
	<path class="st0" d="M80.78,58.41c-0.01-0.02-0.01-0.03-0.01-0.03C80.78,58.39,80.78,58.4,80.78,58.41
		C80.78,58.41,80.78,58.41,80.78,58.41z"/>
	<path class="st0" d="M88.6,56.19l-6.61-16.34c-0.05-0.13-0.14-0.19-0.21-0.22c-0.1-0.04-0.21-0.04-0.31,0.01l-5.16,2.29
		c-0.2,0.08-0.29,0.31-0.21,0.5c-0.4-0.97,5.81,14.31,6.67,16.42c0.09,0.14,0.29,0.2,0.47,0.12l5.17-2.29
		C88.59,56.61,88.68,56.39,88.6,56.19z"/>
	<path class="st0" d="M44.71,51.89c-0.02,0.03-0.04,0.05-0.05,0.07C44.67,51.94,44.69,51.92,44.71,51.89z"/>
	<path class="st0" d="M45.89,50.28c-0.38,0.52-0.93,1.26-1.19,1.61C44.89,51.64,45.26,51.14,45.89,50.28z"/>
	<path class="st0" d="M73.19,58.98l-8.95-7.17c-0.75-0.6-1.77-0.7-2.61-0.26l-0.92,0.48c-2.14,1.13-4.73,1.18-6.92,0.13
		c-0.91-0.43-1.47-1.32-1.47-2.34c0-0.7,0.28-1.36,0.79-1.86l1.98-1.9h-3.51c-0.63,0-1.24-0.23-1.7-0.64l-0.26-0.23
		c-1.55,2.11-2.67,3.62-3.45,4.68c0.46-0.62-0.1,0.13-4.51,6.12l0.52,0.39c0.73,0.53,1.17,1.41,1.17,2.35v0.24
		c0.05-0.05,0.11-0.09,0.16-0.14c1.41-1.32,3.6-1.48,5.19-0.25c0.98,0.77,1.54,1.93,1.54,3.17c0,0.07,0,0.13,0,0.2
		c0.09-0.02,0.18-0.03,0.28-0.04c1.03-0.12,2.03,0.17,2.84,0.82c1.07,0.86,1.59,2.2,1.44,3.47c0.78-0.08,1.74,0.12,2.47,0.67
		c0.95,0.7,1.44,1.8,1.41,2.89c3.1-0.49,5.26,2.95,3.57,5.5l0.03,0.02c0.77,0.59,1.95,0.51,2.64-0.18c0.89-0.89,0.74-2.3-0.2-3.02
		l-5.01-3.91c-0.36-0.28-0.42-0.81-0.14-1.17c0.28-0.36,0.8-0.43,1.17-0.14l5.73,4.46c0.72,0.55,1.74,0.48,2.38-0.16
		c0.79-0.79,0.68-2.11-0.23-2.76l0,0h0c0,0-0.01-0.01-0.01-0.01l-5.8-4.15c-0.37-0.27-0.46-0.79-0.19-1.16
		c0.27-0.37,0.79-0.46,1.16-0.19l6.07,4.34h0c0.93,0.66,2.23,0.5,2.96-0.37c0.82-0.97,0.65-2.44-0.38-3.2l-6.38-4.73
		c-0.37-0.27-0.45-0.79-0.17-1.16c0.27-0.37,0.79-0.45,1.16-0.17l7.04,5.21c0.77,0.57,1.91,0.48,2.61-0.21
		c0.54-0.54,0.71-1.33,0.48-2.05C75.72,60.42,74.48,59.99,73.19,58.98z"/>
	<path class="st0" d="M44.66,51.96C44.53,52.13,44.51,52.16,44.66,51.96L44.66,51.96z"/>
</g>
<path class="st1" d="M8.77,87.85H90.5c1.7,0,1.7,2.2,0,2.2H8.77C6.9,90.05,6.9,87.85,8.77,87.85z"/>
</svg>
