<?xml version="1.0" encoding="utf-8"?>
<!-- Generator: Adobe Illustrator 23.0.3, SVG Export Plug-In . SVG Version: 6.00 Build 0)  -->
<svg version="1.1" id="Layer_1" xmlns="http://www.w3.org/2000/svg" xmlns:xlink="http://www.w3.org/1999/xlink" x="0px" y="0px"
	 viewBox="0 0 100 100" style="enable-background:new 0 0 100 100;" xml:space="preserve">
<style type="text/css">
	.st0{fill:#293562;}
	.st1{fill-rule:evenodd;clip-rule:evenodd;fill:#293562;}
</style>
<path class="st0" d="M71.94,68.58c0,0.45-0.37,0.82-0.82,0.82H25.9c-0.45,0-0.82-0.37-0.82-0.82V11.23c0-0.45,0.37-0.82,0.82-0.82
	h45.22c0.45,0,0.82,0.37,0.82,0.82V36.1l3.51-4.97V9.2c0-1.27-1.03-2.3-2.3-2.3H23.87c-1.27,0-2.3,1.03-2.3,2.3v61.4
	c0,1.27,1.03,2.3,2.3,2.3h49.27c1.27,0,2.3-1.03,2.3-2.3V51.56l-3.51,4.97C71.94,56.52,71.94,68.58,71.94,68.58z"/>
<path class="st0" d="M70.3,12.05H26.72v55.71H70.3v-8.92l-0.43,0.61c-0.28,0.4,0,0.09-10.16,5.4c-0.73,0.38-1.75-0.2-1.57-1.16
	l1.93-10.6c0.08-0.45-0.42,0.48,10.24-14.67C70.3,38.41,70.3,12.05,70.3,12.05z M32.97,18.49c0-0.45,0.37-0.82,0.82-0.82h13.05
	c0.45,0,0.82,0.37,0.82,0.82v14.35c0,0.45-0.37,0.82-0.82,0.82H33.79c-0.45,0-0.82-0.37-0.82-0.82V18.49z M50.2,62.35H33.79
	c-0.45,0-0.82-0.37-0.82-0.82s0.37-0.82,0.82-0.82H50.2c0.45,0,0.82,0.37,0.82,0.82S50.65,62.35,50.2,62.35z M52.41,55.18H33.79
	c-0.45,0-0.82-0.37-0.82-0.82s0.37-0.82,0.82-0.82h18.63c0.45,0,0.82,0.37,0.82,0.82S52.86,55.18,52.41,55.18z M58.68,48.12H33.79
	c-0.45,0-0.82-0.37-0.82-0.82s0.37-0.82,0.82-0.82h24.89c0.45,0,0.82,0.37,0.82,0.82S59.13,48.12,58.68,48.12z M61.98,40.83h-28.2
	c-0.45,0-0.82-0.37-0.82-0.82s0.37-0.82,0.82-0.82h28.2c0.45,0,0.82,0.37,0.82,0.82S62.43,40.83,61.98,40.83z M61.98,33.65H51.84
	c-0.45,0-0.82-0.37-0.82-0.82s0.37-0.82,0.82-0.82h10.14c0.45,0,0.82,0.37,0.82,0.82S62.43,33.65,61.98,33.65z M61.98,26.48H51.84
	c-0.45,0-0.82-0.37-0.82-0.82s0.37-0.82,0.82-0.82h10.14c0.45,0,0.82,0.37,0.82,0.82S62.43,26.48,61.98,26.48z M61.98,19.31H51.84
	c-0.45,0-0.82-0.37-0.82-0.82s0.37-0.82,0.82-0.82h10.14c0.45,0,0.82,0.37,0.82,0.82S62.43,19.31,61.98,19.31z"/>
<path class="st0" d="M75.16,43.39c-0.26,0.36-0.77,0.45-1.14,0.19c-0.37-0.26-0.45-0.77-0.19-1.14l5.3-7.35l-2.54-1.79L62.5,53.23
	l6.06,4.28C70,55.48,81.31,39.47,82.65,37.58l-2.19-1.55L75.16,43.39z"/>
<path class="st0" d="M85.6,26.96c-1.7-1.2-4.01-0.76-5.17,0.88l-2.91,4.12l6.07,4.28l2.9-4.11C87.69,30.43,87.3,28.16,85.6,26.96z"
	/>
<polygon class="st0" points="61.96,54.85 60.68,61.89 67.17,58.53 "/>
<path class="st0" d="M43.5,22.83h-1.84c-0.1-0.53-0.34-1.02-0.69-1.43h2.53c0.28,0,0.5-0.22,0.5-0.5s-0.22-0.5-0.5-0.5h-6.37
	c-0.28,0-0.5,0.22-0.5,0.5s0.22,0.5,0.5,0.5h1.72c0.85,0.02,1.58,0.61,1.79,1.43h-3.51c-0.28,0-0.5,0.22-0.5,0.5s0.22,0.5,0.5,0.5
	h3.54c-0.25,0.94-1.37,1.66-1.82,1.66h-1.28c-0.28,0-0.5,0.23-0.5,0.5c0,0.12,0.05,0.24,0.13,0.34l4.14,4.43
	c0.09,0.1,0.23,0.16,0.37,0.16c0.12,0,0.24-0.05,0.33-0.14c0.2-0.19,0.21-0.5,0.03-0.7c0,0,0,0,0,0l-3.35-3.58h0.12
	c1.02,0,2.6-1.19,2.84-2.66h1.81c0.28,0,0.5-0.22,0.5-0.5S43.77,22.84,43.5,22.83L43.5,22.83z"/>
<path class="st1" d="M10.72,83.68h81.73c1.7,0,1.7,2.2,0,2.2H10.72C8.85,85.88,8.85,83.68,10.72,83.68z"/>
</svg>
